<svg width="224" height="63" viewBox="0 0 224 63" fill="none" xmlns="http://www.w3.org/2000/svg">
<path d="M142.508 24.5147C142.508 21.1736 145.291 22.1381 145.291 21.2425C145.291 20.7947 145.05 20.6914 144.569 20.6914C143.985 20.6914 143.092 20.8292 140.893 20.8292C139.038 20.8292 137.835 20.6914 137.045 20.6914C136.564 20.6914 136.289 20.7603 136.289 21.1736C136.289 21.9314 139.485 21.6903 139.485 23.6881V43.1836C139.485 44.9747 139.416 46.077 138.419 46.5247C137.183 47.1447 136.805 47.0758 136.736 47.5236C136.736 47.8336 136.977 47.9025 137.32 47.9025C138.832 47.9025 140.446 47.7992 141.992 47.7647C144.878 47.6958 148.795 47.9025 151.681 47.9025C153.364 47.9025 154.189 47.9714 155.426 46.5936C156.353 45.5947 157.35 44.2514 157.35 42.8736C157.35 42.8047 157.315 42.4258 157.04 42.4258C156.559 42.4258 154.258 46.387 145.428 46.387C142.233 46.387 142.542 45.4569 142.542 43.1836L142.508 24.5147Z" fill="#111111"/>
<path d="M116.329 35.3647C116.638 35.8125 117.222 36.6047 117.222 37.328V44.6647C117.222 47.3858 114.267 46.3869 114.267 47.4892C114.267 47.9025 114.508 47.9369 114.851 47.9369C115.195 47.9369 116.569 47.7992 118.287 47.7992C119.696 47.7992 121.894 47.9369 122.478 47.9369C123.028 47.9369 123.372 47.9025 123.372 47.5581C123.372 46.3525 120.245 47.4547 120.245 44.1136V36.6392C120.245 36.0536 120.554 35.8814 121.173 34.9169L127.735 24.5492C128.353 23.5847 128.834 22.5169 129.865 21.8969C130.14 21.7592 130.792 21.5869 130.792 21.1736C130.792 20.9669 130.586 20.7258 130.38 20.7258C129.281 20.7258 128.181 20.8636 127.048 20.8636C126.12 20.8636 125.158 20.7258 124.265 20.7258C123.853 20.7258 123.475 20.7947 123.475 21.3114C123.475 22.2414 126.326 21.4147 126.326 23.3092C126.326 24.3425 125.776 24.9969 125.536 25.4103L120.383 33.8147C120.073 34.2969 119.867 34.5725 119.661 34.5725C119.421 34.5725 119.215 34.3314 118.905 33.8836L113.03 24.5147C112.79 24.1703 112.343 23.5503 112.343 22.9303C112.343 21.8281 114.13 21.7936 114.13 21.1392C114.13 20.7947 113.683 20.7603 113.408 20.7603C113.03 20.7603 112 20.8981 110.729 20.8981C108.118 20.8981 107.396 20.7603 106.365 20.7603C106.091 20.7603 105.884 21.0703 105.884 21.3458C105.884 22.0003 107.74 21.5525 108.736 23.2058L116.329 35.3647Z" fill="#111111"/>
<path d="M103.961 45.6981C103.067 44.3547 102.621 42.7358 102.037 41.3236L94.1005 21.5181C93.9974 21.2081 93.7226 20.1058 93.3103 20.1058C92.8293 20.1058 92.6919 20.7258 90.4588 25.5481L81.3201 45.1469C80.3238 47.3514 78.5373 46.6969 78.5373 47.4892C78.5373 47.7303 78.6404 47.9025 78.8809 47.9025C79.8772 47.9025 80.9078 47.7647 81.9385 47.7647C83.0035 47.7647 84.0686 47.9025 85.1336 47.9025C85.6146 47.9025 86.1643 48.0058 86.1643 47.3169C86.1643 46.3181 83.4502 47.4892 83.4502 44.7681C83.4502 44.2858 83.5876 43.7003 83.725 43.4247L85.752 38.9814C86.1299 38.1892 86.817 38.1892 87.5385 38.1892L96.7459 38.3269C97.8109 38.3269 98.0514 38.9125 98.4293 39.7736L99.2538 41.8403C99.6318 42.8736 100.422 44.6303 100.422 45.4914C100.422 46.9381 98.1201 46.5592 98.1201 47.4892C98.1201 47.8681 98.7385 47.8681 98.9446 47.8681C99.9753 47.8681 101.006 47.7303 102.037 47.7303C103.617 47.7303 105.163 47.8681 106.743 47.8681C107.018 47.8681 107.293 47.8681 107.293 47.5236C107.327 46.6281 105.094 47.4547 103.961 45.6981ZM96.1962 36.6736L87.8134 36.5358C87.3324 36.5358 87.0575 36.3981 87.3324 35.8469L92.0735 25.5481C92.314 25.1003 92.4858 25.1003 92.6919 25.5481L96.8146 35.8814C96.9864 36.3981 97.0207 36.6736 96.1962 36.6736Z" fill="#111111"/>
<path d="M69.8453 32.7125C69.8453 32.437 73.4183 31.1625 73.4183 27.2703C73.4183 24.4114 71.7349 20.7258 65.0355 20.7258C61.9778 20.7258 60.4661 20.8636 58.9201 20.8636C57.3741 20.8636 56.6183 20.7258 55.8625 20.7258C55.4158 20.7258 54.8318 20.6914 54.8318 21.2769C54.8318 22.0347 58.233 21.6558 58.233 24.5836V43.4936C58.233 46.4903 56.8931 46.697 56.4809 46.8003C55.7938 47.0414 55.3471 47.1447 55.3471 47.5236C55.3471 47.8681 56.103 47.937 56.3091 47.937C58.0612 47.937 59.8477 47.7992 61.5999 47.7992C62.9054 47.7992 65.1729 47.937 66.5471 47.937C74.0023 47.937 75.8232 42.3225 75.8232 39.7736C75.8576 33.4014 69.8453 33.2981 69.8453 32.7125ZM63.4895 22.0003C67.3373 22.0003 70.8073 24.3425 70.8073 28.5103C70.8073 30.3014 70.498 32.6436 64.2453 32.6436C60.8097 32.6436 61.2563 32.437 61.2563 31.2314V24.8936C61.2563 22.6547 61.0845 22.0003 63.4895 22.0003ZM66.5128 46.9036C61.0845 46.9036 61.2907 46.1114 61.2907 43.3214V34.7103C61.2907 34.3658 61.0846 33.8147 64.0392 33.8147C72.7999 33.8147 72.9717 38.7403 72.9717 41.1858C72.9373 43.4936 71.5631 46.9036 66.5128 46.9036Z" fill="#111111"/>
<path d="M172.741 20.3813C164.908 20.3813 158.724 26.168 158.724 34.1936C158.724 42.288 163.809 48.2125 172.088 48.2125C180.609 48.2125 186.518 42.6325 186.518 33.9869C186.518 26.0302 180.54 20.3813 172.741 20.3813ZM173.703 47.0413C166.145 47.0413 161.507 40.1525 161.507 33.0569C161.507 26.9947 165.183 21.6558 171.573 21.6558C179.028 21.6558 183.701 28.4758 183.701 35.468C183.735 42.5636 179.269 47.0413 173.703 47.0413Z" fill="#111111"/>
<path d="M210.464 43.7347L204.073 34.0214C206.753 32.9536 208.883 30.3703 208.883 27.3736C208.883 19.9681 200.432 20.7258 199.848 20.7258C197.855 20.7258 195.691 20.8636 193.457 20.8636C191.499 20.8636 191.705 20.7258 191.018 20.7258C190.572 20.7258 190.262 20.967 190.262 21.1736C190.262 22.4825 193.56 20.8981 193.56 24.5836V44.1481C193.56 47.0758 190.778 46.5247 190.778 47.4892C190.778 47.7303 190.915 47.9025 191.156 47.9025C192.599 47.9025 194.041 47.7647 195.519 47.7647C198.68 47.7647 199.573 47.9025 199.916 47.9025C200.226 47.9025 200.569 47.9714 200.569 47.5925C200.569 46.2836 196.618 47.4892 196.618 44.1825V36.0881C196.618 35.7092 196.378 35.0203 197.614 35.0203C201.875 35.0203 201.325 34.917 202.699 37.0525L206.925 43.7692C208.368 45.9736 209.88 47.937 212.662 47.937C213.006 47.937 215.136 47.9369 215.136 47.4892C215.067 46.5592 213.212 47.9714 210.464 43.7347ZM200.706 33.7114C198.92 33.7114 196.549 33.9181 196.549 33.1603V23.4125C196.549 21.897 197.34 22.0003 198.714 22.0003C202.459 22.0003 205.997 23.5847 205.997 28.2692C206.032 33.0225 202.356 33.7114 200.706 33.7114Z" fill="#111111"/>
<path d="M40.0245 57.547H8.9325V14.3536L9.17299 13.9747C12.2307 9.32473 18.1055 6.4314 24.4613 6.4314C27.6221 6.4314 30.7141 7.15473 33.3938 8.46362C36.0392 9.77251 38.238 11.667 39.7497 13.9403L39.9902 14.3192V57.547H40.0245Z" fill="#111111"/>
<path d="M38.4786 14.8014C35.7988 10.737 30.508 7.98145 24.4614 7.98145C18.4148 7.98145 13.1583 10.737 10.4442 14.8014V55.9626H38.4442V14.8014H38.4786Z" fill="white"/>
<path d="M21.1633 30.0258L22.3314 29.888C22.3657 29.888 22.4001 29.8536 22.4001 29.8191V24.618C22.4001 24.1703 22.2283 23.7914 21.9191 23.688C21.8847 23.688 21.816 23.6536 21.7817 23.6536C21.4038 23.6536 21.0602 24.0669 21.0602 24.5836V29.9569C21.0945 29.9914 21.1289 30.0258 21.1633 30.0258ZM34.5964 47.1447C34.5964 47.1447 34.562 47.0758 34.562 47.0414C34.562 47.0069 34.5277 46.9725 34.5277 46.9725L34.4933 46.8691C34.4933 46.8347 34.459 46.8003 34.459 46.7658C34.459 46.7314 34.3903 46.6969 34.3903 46.6625C34.3559 46.628 34.3215 46.5936 34.2872 46.628C34.2528 46.628 34.2185 46.628 34.1841 46.628C34.1498 46.628 33.9093 46.6625 33.8749 46.6625C33.8406 46.6625 33.8406 46.628 33.8062 46.628C33.8062 46.5936 33.7718 46.5936 33.7718 46.5936C33.7718 46.5936 33.7031 46.5592 33.6688 46.5592C33.6344 46.5592 33.6001 46.5591 33.5314 46.5936C33.4626 46.5936 33.3939 46.5592 33.3939 46.5592C33.3939 46.5592 33.3596 46.5247 33.3252 46.5247C33.2909 46.5247 33.2565 46.5247 33.2222 46.5247C33.1878 46.5247 33.1534 46.5247 33.1534 46.5247L33.1191 46.4903C33.1191 46.4903 33.1191 46.4558 33.0847 46.4214C33.0504 46.3869 33.016 46.318 33.016 46.318C33.016 46.318 33.016 46.2492 32.9817 46.2147C32.9817 46.1803 32.9473 46.1114 32.9473 46.0769C32.9473 46.0425 32.9473 46.008 32.913 45.9736C32.913 45.9391 32.8786 45.8358 32.8786 45.8014C32.8786 45.7669 32.8442 45.698 32.8099 45.6636C32.7755 45.6636 32.7412 45.5947 32.7412 45.5947L32.7068 45.5258C32.7068 45.5258 32.6725 45.4569 32.6381 45.4225C32.6038 45.4225 32.5007 45.2847 32.5007 45.2847C32.5007 45.2847 32.4663 45.2158 32.4663 45.1814C32.4663 45.1814 32.432 45.078 32.432 45.0436C32.432 45.0091 32.3976 44.9403 32.3976 44.9403C32.3976 44.9058 32.3633 44.8714 32.3633 44.8369C32.3289 44.8025 32.3289 44.7336 32.2946 44.7336C32.2602 44.6991 32.2258 44.6303 32.2258 44.5958C32.2258 44.5614 32.1571 44.4236 32.1228 44.3891C32.1228 44.3547 32.0884 44.2514 32.0541 44.2169C32.0541 44.1825 31.9853 44.0791 31.9853 44.0447C31.9853 44.0103 31.8823 43.8036 31.8823 43.7691C31.8823 43.7003 31.8136 43.5969 31.7792 43.5625C31.7792 43.528 31.6418 43.3214 31.5387 43.218C31.4357 43.1147 31.4013 43.0458 31.4013 43.0458C31.4013 43.0114 31.3669 42.9769 31.3669 42.9425C31.3326 42.908 31.3326 42.8736 31.2982 42.8391C31.2639 42.8047 31.2295 42.7358 31.2295 42.7014C31.1952 42.6669 31.1608 42.598 31.1265 42.5291C31.0921 42.4947 31.0234 42.3914 30.989 42.3569C30.9547 42.3225 30.9203 42.2191 30.9203 42.1847C30.886 42.1503 30.8516 42.0814 30.8516 42.0469C30.8516 42.0125 30.7829 41.8747 30.7485 41.8403C30.7142 41.8058 30.6798 41.7369 30.6798 41.7025C30.6798 41.668 30.6111 41.6336 30.5768 41.5647C30.508 41.4958 30.4737 41.4269 30.4393 41.3925C30.405 41.358 30.3706 41.3236 30.3706 41.3236C30.3706 41.3236 30.3363 41.2547 30.3363 41.2203C30.3363 41.1858 30.2676 41.0825 30.2332 41.0136C30.1988 40.9447 30.1301 40.8414 30.1301 40.8069C30.0958 40.7725 30.0614 40.738 30.0614 40.7036C30.0271 40.6692 29.9927 40.6003 29.9927 40.6003L29.924 40.4969C29.924 40.4969 29.8209 40.3591 29.7866 40.3247C29.7522 40.2903 29.6492 40.118 29.6148 40.0836C29.5804 40.0491 29.5461 40.0147 29.5117 39.9803C29.4774 39.9803 29.4087 39.9114 29.3743 39.9114C29.3399 39.9114 29.3056 39.8425 29.3056 39.808C29.3056 39.7736 29.2712 39.7047 29.2712 39.7047C29.2369 39.6703 29.2369 39.6014 29.2369 39.6014C29.2369 39.5669 29.2025 39.5325 29.1682 39.498C29.1682 39.4636 29.1338 39.3947 29.0995 39.3603C29.0651 39.3258 29.0307 39.2225 28.9964 39.1536C28.962 39.0847 28.9277 39.0503 28.8933 39.0158C28.859 38.9469 28.7903 38.8436 28.7903 38.8092C28.7903 38.7747 28.7559 38.7058 28.7559 38.7058C28.7559 38.6714 28.6528 38.6369 28.6185 38.6025C28.5841 38.568 28.5498 38.5336 28.5498 38.4991C28.5498 38.4647 28.5498 38.4303 28.5498 38.3958C28.5498 38.3614 28.5498 38.2925 28.5498 38.258C28.5498 38.2236 28.4811 38.1203 28.4811 38.1203C28.4811 38.0858 28.4123 38.0169 28.4123 38.0169C28.378 38.0169 28.378 37.9825 28.3436 37.948C28.3436 37.948 28.3093 37.9136 28.2749 37.8791C28.2749 37.8791 28.2062 37.8103 28.1719 37.8103C28.1719 37.8103 28.0688 37.7414 28.0688 37.7069C28.0344 37.7069 28.0001 37.6725 27.9657 37.6725C27.9314 37.6725 27.897 37.7069 27.897 37.7069C27.897 37.7069 27.8626 37.6725 27.8283 37.6725C27.7939 37.638 27.7252 37.6036 27.7252 37.6036C27.6909 37.6036 27.6222 37.5691 27.6222 37.5691C27.5878 37.5691 27.4847 37.5347 27.4847 37.5347L27.3817 37.5003C27.3817 37.5003 27.2786 37.4658 27.2786 37.4314C27.2442 37.4314 27.1755 37.3969 27.1755 37.3969L27.1068 37.3625C27.1068 37.3625 27.0381 37.3625 27.0038 37.3625C26.9694 37.3625 26.8663 37.328 26.832 37.328L26.7633 37.2936C26.7289 37.2591 26.6258 37.1903 26.5915 37.1903C26.5571 37.1558 26.4884 37.0525 26.4541 37.0525C26.4197 37.018 26.2479 36.8803 26.2479 36.8803C26.2136 36.8458 26.0418 36.7425 26.0074 36.708C25.9731 36.708 25.9387 36.5703 25.9044 36.5358C25.9044 36.5014 25.8013 36.3291 25.7326 36.2603C25.6639 36.1914 25.5608 36.1225 25.5608 36.1225H25.5264V36.088V35.9503C25.5608 35.8814 25.5952 35.7436 25.6295 35.6747C25.6295 35.6058 25.6295 35.5369 25.6295 35.468C25.6295 35.3991 25.6295 35.3991 25.6639 35.3991H25.6982C25.6982 35.3991 25.6982 35.3991 25.7669 35.4336C25.8357 35.468 25.8357 35.4336 25.87 35.3991C25.9044 35.3647 25.87 35.3303 25.87 35.2958C25.87 35.2614 25.9044 35.1925 25.9044 35.158C25.9044 35.1236 26.0074 35.0891 26.0074 35.0547C26.0074 35.0203 26.0761 35.0203 26.0761 35.0203C26.1105 35.0203 26.1449 34.9858 26.1449 34.9858C26.1449 34.9858 26.1449 34.9514 26.1792 34.9514C26.1792 34.9514 26.2136 34.9169 26.2136 34.8825C26.2136 34.848 26.2136 34.8136 26.2136 34.7791C26.2136 34.7447 26.2479 34.7103 26.2479 34.6758C26.2479 34.6414 26.2823 34.6069 26.2823 34.5725C26.2823 34.538 26.3166 34.5036 26.3166 34.4691C26.3166 34.4347 26.3166 34.4003 26.3166 34.3658V34.2969C26.3166 34.2625 26.2823 34.228 26.2823 34.228C26.2823 34.228 26.2823 34.1591 26.2823 34.1247C26.2823 34.0903 26.2823 34.0903 26.2479 34.0558C26.2479 34.0558 26.2479 34.0214 26.2136 33.9869C26.2136 33.9525 26.2136 33.9525 26.1792 33.9525C26.1792 33.918 26.1449 33.8836 26.1449 33.8491C26.1449 33.8147 26.1105 33.7458 26.1105 33.7458C26.1105 33.7114 26.0418 33.6425 26.0074 33.6425C25.9731 33.608 25.9731 33.608 25.9731 33.608C25.9731 33.608 25.9731 33.4703 25.9731 33.4358C25.9731 33.4014 25.9731 33.3325 25.9387 33.298C25.9387 33.2636 25.9044 33.2291 25.87 33.1947C25.8357 33.1603 25.7326 33.0914 25.7326 33.0914C25.6982 33.0569 25.6295 33.0225 25.6295 32.988C25.5952 32.9536 25.5608 32.8847 25.5264 32.8847C25.4921 32.8503 25.4577 32.8158 25.4577 32.8158C25.4577 32.8158 25.4234 32.7814 25.389 32.7814L25.286 32.7125C25.2516 32.7125 25.2172 32.678 25.2172 32.6436C25.1829 32.6436 25.1142 32.6091 25.0798 32.5747L24.9768 32.5403C24.9424 32.5403 24.8393 32.5058 24.805 32.5058C24.7706 32.5058 24.6676 32.5058 24.5988 32.5058C24.5301 32.5058 24.5301 32.5403 24.4958 32.5403C24.4614 32.5403 24.3927 32.6092 24.3927 32.6092C24.3927 32.6092 24.3584 32.6091 24.324 32.6436C24.2896 32.6436 24.1866 32.7125 24.1866 32.7469C24.1866 32.7814 24.1179 32.8503 24.1179 32.8503H24.0492C24.0148 32.8503 23.9117 32.9191 23.9117 32.9191C23.843 32.9191 23.8087 32.9536 23.7743 32.9536L23.7056 32.988C23.7056 32.988 23.6712 32.988 23.6025 33.0569C23.5338 33.0914 23.3964 33.2636 23.362 33.298C23.362 33.3325 23.2933 33.4703 23.2933 33.5047C23.2933 33.5391 23.259 33.5736 23.259 33.5736C23.259 33.5736 23.259 33.608 23.2246 33.6425C23.2246 33.6769 23.1903 33.7114 23.1903 33.7458C23.1559 33.7803 23.1559 33.8147 23.1559 33.8147C23.1215 33.8147 23.1215 33.8491 23.0872 33.8836C23.0528 33.8836 23.0185 33.9525 23.0185 33.9869C22.9841 34.0214 22.9841 34.0558 22.9498 34.0903C22.9498 34.1247 22.9154 34.1936 22.9154 34.1936C22.9154 34.1936 22.9154 34.228 22.8811 34.2625C22.8811 34.2969 22.8467 34.3314 22.8467 34.3658C22.8467 34.4003 22.8467 34.5036 22.8467 34.5036V34.5725C22.8467 34.5725 22.8467 34.6758 22.8467 34.7103C22.8467 34.7447 22.8467 34.8825 22.8811 34.9169C22.8811 34.9514 22.9498 34.9858 22.9841 35.0203C22.9841 35.0203 23.0528 35.0891 23.0872 35.0891C23.1215 35.0891 23.1215 35.1236 23.1559 35.1236H23.1903H23.2246L23.259 35.158C23.259 35.158 23.259 35.1925 23.2933 35.1925C23.2933 35.2269 23.3277 35.2614 23.3277 35.2958C23.3277 35.3303 23.362 35.3991 23.362 35.4336C23.362 35.468 23.362 35.5369 23.3964 35.5714C23.4307 35.6058 23.4651 35.6403 23.4995 35.6403C23.5338 35.6403 23.5682 35.6058 23.5682 35.6058V35.7092C23.5682 35.7092 23.5682 35.8125 23.5682 35.8814C23.5682 35.9158 23.6025 36.0536 23.6025 36.0536C23.6025 36.0536 23.6025 36.088 23.6025 36.1225C23.6025 36.1569 23.6025 36.1914 23.6025 36.1914C23.6025 36.1914 23.5682 36.1914 23.5338 36.2258C23.4995 36.2603 23.4307 36.2947 23.3964 36.2947C23.362 36.3291 23.2933 36.4325 23.2933 36.4669C23.2933 36.5014 23.2246 36.6047 23.1903 36.6391C23.1559 36.6736 23.1215 36.7769 23.0872 36.8114C23.0528 36.8458 22.9498 36.9147 22.9154 36.9836C22.8811 37.018 22.7093 37.1558 22.6749 37.1903C22.6406 37.2247 22.6062 37.2592 22.6062 37.2592C22.6062 37.2592 22.6062 37.2591 22.5718 37.2936C22.5375 37.2936 22.5031 37.328 22.4344 37.3625C22.3657 37.3969 22.3314 37.4314 22.2626 37.4314C22.1939 37.4658 22.1252 37.5003 22.1252 37.5003H22.0565C22.0222 37.5003 22.0222 37.5003 22.0222 37.5003C22.0222 37.5003 21.9878 37.5347 21.9534 37.5347C21.9191 37.5347 21.8847 37.5691 21.8847 37.5691C21.8504 37.5691 21.816 37.5691 21.7817 37.5691C21.7473 37.5691 21.713 37.5691 21.6786 37.5691C21.6442 37.5691 21.6099 37.6036 21.5755 37.6036C21.5412 37.6036 21.5412 37.6036 21.5068 37.638L21.4381 37.6725C21.4038 37.6725 21.3694 37.7069 21.335 37.7069C21.335 37.7069 21.3007 37.7414 21.2663 37.7414C21.232 37.7414 21.1976 37.7758 21.1976 37.7758C21.1976 37.7758 21.1633 37.8103 21.1289 37.7758C21.0945 37.7758 21.0602 37.7758 21.0258 37.7758C20.9915 37.7758 20.8884 37.8447 20.8541 37.8447C20.8197 37.8791 20.751 37.948 20.7166 37.9825C20.7166 38.0169 20.6479 38.1203 20.6136 38.1547C20.5792 38.1891 20.5792 38.258 20.5449 38.2925C20.5105 38.3269 20.4761 38.3958 20.4761 38.4303C20.4761 38.4647 20.4418 38.568 20.4418 38.568C20.4418 38.6025 20.3731 38.7058 20.3731 38.7058C20.3731 38.7058 20.3044 38.7403 20.3044 38.7747C20.3044 38.8091 20.2357 38.9469 20.2357 38.9814C20.2357 39.0158 20.2013 39.0847 20.1669 39.1191C20.1669 39.1536 20.0982 39.2914 20.0982 39.2914C20.0982 39.2914 20.0982 39.3258 20.0639 39.3603C20.0639 39.3947 20.0295 39.4636 19.9952 39.5325C19.9608 39.5669 19.9608 39.7736 19.9608 39.7736C19.9608 39.7736 19.9608 39.808 19.9265 39.8425C19.9265 39.8769 19.8921 39.9803 19.8921 39.9803L19.8577 40.0147C19.8234 40.0492 19.789 40.0836 19.789 40.118C19.789 40.1525 19.7547 40.1869 19.7203 40.2214C19.686 40.2558 19.686 40.2903 19.6516 40.3247C19.6516 40.3591 19.5829 40.428 19.5829 40.4625C19.5829 40.4969 19.5142 40.5658 19.5142 40.6003C19.4798 40.6347 19.4798 40.7036 19.4455 40.738C19.4111 40.7725 19.3768 40.8758 19.3424 40.9103C19.308 40.9447 19.308 41.0136 19.308 41.048C19.308 41.0825 19.2393 41.2203 19.2393 41.2547C19.2393 41.2891 19.1706 41.4269 19.1706 41.4614C19.1706 41.4958 19.1363 41.5991 19.1019 41.6336C19.1019 41.668 19.0332 41.7714 19.0332 41.8058C19.0332 41.8403 18.9988 41.9092 18.9645 41.9092C18.9645 41.9436 18.8958 42.0125 18.8614 42.0469C18.8271 42.0814 18.7927 42.1847 18.7584 42.1847C18.7584 42.1847 18.724 42.2536 18.6896 42.288C18.6896 42.3225 18.6209 42.3914 18.6209 42.4258C18.5866 42.4603 18.5522 42.5636 18.5522 42.598C18.5179 42.6325 18.4835 42.7703 18.4835 42.8047C18.4835 42.8391 18.4148 42.908 18.4148 42.9425C18.4148 42.9769 18.3461 43.0803 18.3461 43.1147C18.3461 43.1492 18.2774 43.2869 18.2774 43.3214C18.2774 43.3558 18.2087 43.5625 18.1743 43.5969C18.1743 43.6314 18.1056 43.838 18.0712 43.8725C18.0712 43.9069 17.9682 44.1136 17.9682 44.148C17.9338 44.2169 17.8307 44.3891 17.7964 44.458C17.762 44.5269 17.659 44.8369 17.659 44.8369L17.6246 44.9058L17.5559 44.9747C17.5559 45.0091 17.4872 45.1125 17.4528 45.1125C17.4528 45.1469 17.3841 45.2158 17.3841 45.2503C17.3498 45.2847 17.3498 45.3191 17.3498 45.3191C17.3498 45.3191 17.3498 45.3192 17.3154 45.3536C17.2811 45.388 17.2811 45.388 17.2811 45.4225C17.2811 45.4569 17.2467 45.4914 17.2467 45.4914C17.2467 45.4914 17.2123 45.5258 17.2123 45.5947C17.2123 45.5947 17.2123 45.6291 17.178 45.6636L17.1436 45.7325C17.1093 45.8014 17.1093 45.8358 17.1093 45.8358C17.1093 45.8703 17.0749 45.9047 17.0749 45.9047C17.0749 45.9047 17.0406 45.8703 17.0062 45.9047C16.9718 45.9047 16.9718 45.9047 16.9718 45.9047H16.9375C16.9375 45.9047 16.9031 45.9047 16.8688 45.9047C16.8344 45.9047 16.8001 45.9047 16.7657 45.9047C16.7314 45.9047 16.697 45.9391 16.697 45.9391C16.697 45.9391 16.6283 45.9736 16.5596 45.9736C16.4909 45.9736 16.4565 45.9391 16.4222 45.9391C16.3878 45.9391 16.3191 45.9736 16.3191 45.9736L16.2847 46.008C16.2504 46.0425 16.2504 46.0769 16.216 46.0769C16.1817 46.0769 16.0786 46.0769 16.0442 46.0769C16.0099 46.0769 15.9412 46.1114 15.9412 46.1114C15.9068 46.1114 15.7007 46.1458 15.6663 46.1803C15.632 46.2147 15.5976 46.2836 15.5976 46.2836C15.5976 46.318 15.5976 46.318 15.5976 46.318C15.5289 46.318 14.2234 46.4214 14.189 46.4214C14.1547 46.4214 14.1547 46.4558 14.1547 46.4558V46.5247C14.1547 46.5591 14.1547 47.8336 14.1547 47.8336L11.7841 47.868V54.7569H36.6921V47.5236C35.1117 47.4891 34.3903 47.4891 34.3903 47.4891C34.6307 47.1447 34.5964 47.1447 34.5964 47.1447ZM21.7817 43.9758C21.7817 44.0447 21.816 44.0791 21.816 44.0791C21.816 44.0791 21.816 44.1136 21.816 44.148C21.816 44.1825 21.7817 44.2514 21.7817 44.2858C21.7817 44.3203 21.7817 44.3547 21.7817 44.3891C21.7817 44.4236 21.7817 44.4925 21.7473 44.4925C21.713 44.4925 21.6099 44.5614 21.5755 44.5614C21.5412 44.5614 21.4725 44.6647 21.4381 44.6991C21.4038 44.7336 21.335 44.8714 21.335 44.8714C21.335 44.9058 21.2663 44.9403 21.2663 45.0092C21.232 45.0436 21.1633 45.1469 21.1633 45.1814C21.1289 45.2158 21.0945 45.3192 21.0602 45.3536C21.0258 45.388 20.9228 45.6291 20.8884 45.6636C20.8541 45.698 20.751 45.8358 20.7166 45.9047C20.6823 45.9736 20.4074 46.318 20.4074 46.318L19.1706 45.8703C19.1706 45.8703 19.1706 45.8358 19.2393 45.8014C19.308 45.7325 19.3768 45.6291 19.4111 45.5947C19.4455 45.5258 19.4455 45.4569 19.4455 45.4569C19.5142 45.4225 19.6172 45.2503 19.6172 45.2503C19.6172 45.2158 19.6516 45.1814 19.6516 45.1469C19.6516 45.1125 19.7203 44.9747 19.7203 44.9747C19.7203 44.9747 19.8234 44.8369 19.8234 44.768C19.8577 44.6991 19.9952 44.4925 20.0295 44.458C20.0639 44.3891 20.2013 44.1825 20.27 44.1136C20.3044 44.0447 20.5792 43.6314 20.5792 43.5969C20.6136 43.5625 20.6823 43.3214 20.7166 43.2869C20.751 43.2525 20.8197 43.0803 20.8884 42.9769C20.9571 42.8736 21.0602 42.6325 21.0602 42.5636C21.0602 42.4947 21.1289 42.4258 21.1289 42.3569C21.1633 42.288 21.3007 41.9091 21.3007 41.8747C21.3007 41.8403 21.335 41.8058 21.3694 41.8058C21.4038 41.7714 21.4725 41.5991 21.5068 41.5303C21.5412 41.4614 21.5755 41.4614 21.5755 41.4614C21.5755 41.4614 21.5755 41.4958 21.5755 41.5303C21.5755 41.5647 21.5755 41.668 21.5755 41.7369C21.5755 41.8058 21.5755 41.9091 21.5755 41.978C21.5755 42.0469 21.6099 42.2191 21.6442 42.3569C21.6786 42.4947 21.7817 42.8391 21.816 42.908C21.8504 42.9769 21.816 43.0803 21.816 43.1147C21.816 43.1492 21.816 43.3214 21.816 43.3903C21.816 43.4591 21.8847 43.5625 21.8847 43.5969C21.8847 43.6314 21.8847 43.6658 21.8847 43.6658C21.8847 43.6658 21.8847 43.7003 21.8847 43.7347C21.7817 43.8036 21.7817 43.9069 21.7817 43.9758ZM31.1608 46.7314C31.0921 46.7658 31.0921 46.8003 31.0921 46.8003C31.0921 46.8003 30.989 46.8003 30.9203 46.8003C30.8516 46.8003 30.8172 46.8347 30.8172 46.8347H30.7142C30.6798 46.8347 30.6111 46.8691 30.6111 46.8691H30.4737H30.3363C30.3363 46.8691 30.2332 46.8003 30.1988 46.7658C30.1645 46.7314 30.0271 46.6625 29.9927 46.628C29.924 46.5936 29.8209 46.5247 29.7522 46.5247C29.6835 46.4903 29.6148 46.4558 29.5461 46.4558C29.5117 46.4558 29.4087 46.4214 29.3743 46.4214C29.3399 46.4214 29.2369 46.4214 29.2025 46.4214C29.1682 46.4214 28.962 46.4558 28.8933 46.4558C28.859 46.4558 28.7559 46.4558 28.6872 46.4214C28.6185 46.3869 28.4123 46.318 28.3436 46.318C28.2749 46.318 28.2406 46.3525 28.2406 46.3525C28.2406 46.3525 28.2062 46.2147 28.2062 46.1458C28.2062 46.0769 28.1719 45.9736 28.1375 45.9047C28.1031 45.8703 28.0688 45.8014 28.0344 45.7325C28.0344 45.6636 27.9657 45.5603 27.9314 45.4914C27.9314 45.4225 27.8626 45.3191 27.8283 45.2503C27.8283 45.1814 27.6909 44.9747 27.6909 44.9058C27.6565 44.8714 27.5534 44.6647 27.4847 44.6303C27.4504 44.5958 27.2786 44.4925 27.2786 44.4925V44.4236C27.2786 44.4236 27.2786 44.2858 27.2786 44.2514C27.2786 44.2169 27.2442 44.1825 27.2442 44.1136C27.2442 44.0791 27.2099 43.9758 27.1755 43.9414C27.1412 43.9414 27.1412 43.9069 27.1412 43.9069L27.1755 43.838C27.1755 43.838 27.2099 43.7691 27.2442 43.7347C27.2786 43.7003 27.2786 43.6314 27.2786 43.5969C27.2786 43.528 27.313 43.4936 27.313 43.4592C27.313 43.4247 27.3473 43.3558 27.3473 43.3214C27.3473 43.2869 27.3817 43.1147 27.3817 43.0803C27.3817 43.0458 27.416 42.9769 27.4504 42.9425C27.4847 42.908 27.4847 42.8736 27.4847 42.8047C27.4847 42.7703 27.4847 42.7014 27.4847 42.6325C27.4847 42.5636 27.5191 42.4947 27.5191 42.4258C27.5191 42.3914 27.5534 42.288 27.5878 42.2536C27.6222 42.2192 27.6222 42.1158 27.6222 42.0814C27.6222 42.0469 27.6565 41.9091 27.6565 41.8747C27.6565 41.8403 27.6909 41.7025 27.6909 41.6336C27.6909 41.5647 27.7596 41.4269 27.7596 41.3925C27.7596 41.3236 27.8283 41.2203 27.8283 41.1858C27.8283 41.1514 27.8626 41.0825 27.8626 41.0825C27.8626 41.048 27.8626 41.0136 27.8626 41.0136H27.9314C27.9314 41.0136 28.0001 41.0825 28.0344 41.1514C28.0688 41.2203 28.1375 41.3236 28.1375 41.3925C28.1719 41.4614 28.4467 41.9091 28.4811 42.0125C28.5154 42.1158 28.8246 42.7014 28.859 42.7703C28.8933 42.8392 29.0651 43.1491 29.0995 43.218C29.1338 43.2869 29.3743 43.6658 29.4087 43.7347C29.443 43.8036 29.7179 44.2169 29.7522 44.2514C29.7866 44.2858 29.9584 44.5958 29.9927 44.5958C30.0271 44.6303 30.2332 44.9058 30.2332 44.9058C30.2332 44.9058 30.3363 45.0436 30.3363 45.1125C30.3363 45.1814 30.4737 45.3191 30.5768 45.4569C30.6798 45.6291 30.7829 45.7325 30.7829 45.7325C30.7829 45.7325 30.8172 45.7325 30.8516 45.8014C30.886 45.8703 30.9547 45.9736 30.989 46.008C31.0234 46.0425 31.0234 46.0769 31.0234 46.0769C31.0234 46.0769 31.0234 46.1114 30.989 46.1458C30.9547 46.1803 31.0234 46.2491 31.0234 46.2491L31.0577 46.3525C31.0577 46.3525 31.0921 46.4558 31.0921 46.4903C31.1265 46.5247 31.1608 46.6625 31.1608 46.6625C31.1608 46.6625 31.2295 46.6969 31.1608 46.7314ZM24.4958 9.53137C19.3424 9.53137 14.6013 11.7358 12.0246 15.318V44.2169L13.5019 44.0791V43.0114C13.5019 42.9769 13.5019 42.9425 13.5019 42.9425V42.4603L13.8798 42.4258C13.8111 42.3569 13.7768 42.288 13.7768 42.2191C13.7768 42.1503 13.8455 42.0814 13.8455 41.978C13.8455 41.8747 13.8455 41.8058 13.8455 41.7025C13.8455 41.5647 13.7768 41.4614 13.8111 41.3236C13.8111 41.2891 13.708 41.0825 13.7768 41.048C13.8111 41.048 13.8455 41.0136 13.8455 41.0136C13.8455 40.9791 13.8455 40.9447 13.8455 40.9447C13.9829 40.9103 13.9829 40.8414 14.086 40.7725C14.1203 40.7725 14.1203 40.738 14.1203 40.738C14.1203 40.7036 14.086 40.6691 14.086 40.6003L14.1203 40.5658C14.1203 40.5658 14.1203 40.5658 14.1547 40.5314C14.1547 40.4969 14.1547 40.4625 14.189 40.428C14.189 40.428 14.189 40.428 14.2234 40.428C14.2234 40.428 14.2921 40.3936 14.3264 40.3936C14.3608 40.3936 14.3952 40.3936 14.4295 40.428C14.4639 40.4625 14.4639 40.4969 14.4639 40.5314C14.4639 40.5314 14.4639 40.5314 14.4639 40.5658L14.4982 40.6003C14.4982 40.6691 14.4639 40.7036 14.4639 40.738L14.4982 40.7725C14.6013 40.8414 14.6013 40.9103 14.7387 40.9447C14.7731 40.9447 14.7731 40.9791 14.7387 41.0136C14.7731 41.0136 14.8074 41.048 14.8418 41.048C14.9105 41.0825 14.7731 41.2547 14.7731 41.3236C14.7731 41.4614 14.7044 41.5647 14.7044 41.7025C14.7044 41.7714 14.7044 41.8747 14.7044 41.978C14.7044 42.0469 14.7731 42.1158 14.7731 42.2191C14.7731 42.2536 14.7387 42.3225 14.7044 42.3569L16.0442 42.2536C16.0786 41.9436 16.0786 41.9436 16.0786 41.9092V41.5647C16.0786 40.9103 16.0786 41.4269 16.0442 40.8069C16.0442 40.3247 16.0442 39.2225 16.0442 38.7403V38.7058C16.0442 38.6369 16.0099 38.6025 16.0099 38.568C16.0099 38.5336 16.0442 38.1891 16.0442 38.1547C16.0442 38.0858 15.9755 38.0169 15.9755 37.9825C15.9755 37.948 16.0099 37.948 16.0099 37.948C16.0099 37.9136 16.0099 37.8791 16.0099 37.8447C16.0099 37.7414 15.9412 37.638 15.8725 37.5691C15.8038 37.5347 15.8038 37.4658 15.8038 37.3969C15.8038 37.328 15.7694 37.2936 15.7694 37.2247C15.7694 37.1558 15.632 37.1903 15.5976 37.1558C15.5289 37.1214 15.5289 37.018 15.4945 36.9491C15.4602 36.8803 15.4258 36.7425 15.3915 36.6736C15.3571 36.6047 15.2197 36.2603 15.3228 36.2603C15.4258 36.1914 15.9755 36.1914 15.9755 35.9847C15.9755 35.9158 15.9755 35.8469 15.9755 35.7436C16.0099 35.6747 16.0442 35.6403 16.0786 35.5714C16.113 35.468 16.0786 35.468 16.0786 35.3303C16.0786 35.2958 16.113 34.9514 16.0099 34.9514C15.8725 34.9858 16.0099 34.8136 16.0099 34.7791C16.0099 34.6758 15.9412 34.6414 15.9068 34.538C15.8725 34.4347 15.8381 34.4003 15.9068 34.2969C15.9068 34.2969 15.9412 34.2625 15.9755 34.2625V34.1592C15.9755 34.1247 16.0099 34.0903 16.0442 34.0903H16.113C16.0442 34.0214 15.9755 33.918 15.9755 33.8491C15.9755 33.7803 16.0442 33.7114 16.0442 33.608C16.0442 33.5391 16.0442 33.4703 16.0442 33.4014C16.0442 33.3669 16.0442 33.3325 16.0442 33.298C16.0442 33.2636 16.0442 33.2636 16.0442 33.2636C16.0442 33.2291 16.0442 33.1947 16.0442 33.1947C16.0442 33.1947 16.0442 33.1947 16.0099 33.1603C15.9755 33.1258 15.9755 33.0914 16.0099 33.0914C16.0099 33.0569 16.0099 33.0225 16.0099 32.988C16.0099 32.9536 15.9068 32.7469 15.9412 32.7125C15.9755 32.7125 16.0099 32.678 16.0099 32.678C16.0099 32.6436 16.0099 32.6092 16.0099 32.6092C16.1473 32.5403 16.1473 32.5058 16.2504 32.4369C16.2847 32.4369 16.2847 32.4025 16.2847 32.4025C16.2847 32.368 16.2504 32.3336 16.2504 32.2647C16.2504 32.2647 16.2504 32.2647 16.2847 32.2303C16.2847 32.2303 16.2847 32.1958 16.3191 32.1958C16.3191 32.1614 16.3191 32.1269 16.3534 32.0925C16.3534 32.0925 16.3534 32.0925 16.3878 32.0925C16.3878 32.0925 16.4565 32.058 16.4909 32.058C16.5252 32.058 16.5596 32.058 16.5939 32.0925C16.6283 32.1269 16.6283 32.1614 16.6283 32.1958C16.6283 32.1958 16.6283 32.1958 16.6283 32.2303C16.6283 32.2647 16.6626 32.2647 16.6626 32.2647C16.6626 32.3336 16.6283 32.368 16.6283 32.4025L16.6626 32.4369C16.7657 32.5058 16.7657 32.5747 16.9031 32.6092C16.9031 32.6092 16.9031 32.6436 16.9031 32.678C16.9375 32.678 16.9718 32.7125 17.0062 32.7125C17.0749 32.7469 16.9375 32.9191 16.9375 32.988C16.9375 33.0225 16.9375 33.0569 16.9375 33.0914C16.9718 33.0914 16.9718 33.1258 16.9375 33.1603C16.9375 33.1947 16.9031 33.1947 16.9031 33.1947C16.9031 33.2291 16.9031 33.2291 16.9031 33.2636C16.9031 33.2636 16.9031 33.298 16.9031 33.3325C16.9031 33.3669 16.9031 33.4014 16.9031 33.4358C16.9031 33.5047 16.9031 33.5736 16.9031 33.6425C16.9031 33.7114 16.9718 33.7803 16.9718 33.8836C16.9718 33.918 16.9375 33.9869 16.9031 34.0214L19.5142 33.4014H19.5485C19.5485 33.4014 19.5829 33.4014 19.5829 33.3669V33.298V32.7125C19.5829 32.5058 19.5485 32.4714 19.5829 32.2991C19.6172 32.1958 19.789 32.1958 19.789 32.0925V31.8514C19.789 31.7825 19.8577 31.7136 19.8577 31.6447V31.5414C19.8577 31.438 19.9265 30.7836 19.789 30.7491C19.7203 30.6458 19.5829 30.4047 19.7203 30.3358C19.8234 30.3014 19.8234 30.2325 19.8921 30.1636C19.9952 30.1291 19.9952 30.0603 19.9952 29.9569C19.9952 29.6814 19.9952 29.3714 19.9952 29.0958C19.9952 27.7869 19.9952 28.3036 20.0295 26.9947C20.0295 26.5814 20.0295 26.168 20.0295 25.7547V25.6858C20.0295 25.6169 19.9608 25.6169 19.9608 25.548C19.9265 25.4792 19.9265 25.4447 19.8577 25.4103C19.7547 25.3069 19.789 25.3414 19.8234 25.2036C19.8577 25.1347 19.8234 25.1003 19.789 24.9969C19.789 24.928 19.8577 24.8936 19.8577 24.8247C19.8577 24.7558 19.8577 24.6869 19.8234 24.5836C19.789 24.5147 19.8234 24.4458 19.7203 24.4458C19.686 24.4458 19.6516 24.4458 19.6516 24.4458C19.6172 24.4114 19.6172 24.3425 19.5829 24.2736C19.5829 24.1703 19.5829 24.1703 19.5142 24.1014C19.4798 24.0325 19.5485 23.9636 19.6172 23.8947C19.686 23.8258 19.7203 23.7569 19.8234 23.7569C19.8921 23.7225 19.9952 23.7569 19.9952 23.6536C20.0295 23.5503 19.9952 23.378 19.9952 23.2747C19.9952 23.1369 20.0639 23.068 20.0982 22.9303C20.1326 22.8269 20.1326 22.7236 20.1326 22.6203C20.1326 22.3447 20.1326 22.1036 20.0295 21.8625C19.9952 21.7936 19.8234 21.518 19.9952 21.4836C20.0295 21.4491 20.1326 21.4491 20.1669 21.4491C20.2357 21.4147 20.2013 21.2425 20.1669 21.1736C20.1326 20.588 20.2357 20.0025 20.5105 19.4858C20.7853 19.0036 21.232 18.5214 21.713 18.2114C21.9191 18.0736 22.0909 17.9703 22.297 17.8669C22.3657 17.8325 22.4001 17.798 22.4688 17.798C22.5375 17.7636 22.5031 17.6947 22.5375 17.6947C22.6062 17.6258 22.6749 17.5914 22.7093 17.5225C22.7436 17.4191 22.778 17.4191 22.8467 17.3847C22.9154 17.3503 22.9841 17.2814 22.9841 17.2125C22.9841 17.178 22.9154 17.1091 22.8811 17.0747C22.8467 16.9714 22.9498 17.0058 22.9841 16.9369C23.0185 16.9025 22.9841 16.868 22.9841 16.8336C22.9841 16.7647 23.0185 16.7303 23.0185 16.6614C23.0185 16.5925 23.0185 16.558 23.0185 16.4891V15.0425C23.0185 14.9391 22.8467 14.9391 22.8467 14.8358C22.8467 14.7669 22.9154 14.8014 22.9498 14.7669C23.0185 14.7669 23.0185 14.698 23.0185 14.6636C23.0528 14.6291 23.0872 14.5947 23.0872 14.5258C23.0872 14.4569 23.0872 14.388 23.0872 14.3191C23.1559 14.0091 23.362 13.7336 23.6369 13.5614C23.7399 13.4925 23.9804 13.458 23.9804 13.458C23.9804 13.3891 24.0492 13.148 24.0492 13.0447C24.0835 12.9414 24.0835 12.8725 24.1179 12.7691C24.1522 12.6658 24.2209 12.4591 24.3584 12.4591C24.4958 12.4591 24.5645 12.6658 24.5988 12.7691C24.6332 12.8725 24.6676 12.9414 24.6676 13.0447C24.7019 13.1136 24.7706 13.3547 24.7363 13.458C24.7363 13.458 24.9768 13.5269 25.0798 13.5614C25.3547 13.6991 25.5608 13.9747 25.6295 14.3191C25.6295 14.388 25.6295 14.4569 25.6295 14.5258C25.6295 14.5947 25.6639 14.5947 25.6982 14.6636C25.7326 14.7325 25.6982 14.7669 25.7669 14.7669C25.8013 14.8014 25.87 14.7669 25.87 14.8358C25.87 14.9391 25.6982 14.9391 25.6982 15.0425V16.4891C25.6982 16.558 25.6982 16.5925 25.6982 16.6614C25.7326 16.7303 25.7326 16.7647 25.7326 16.8336C25.7326 16.868 25.7326 16.9025 25.7669 16.9369C25.8013 16.9714 25.9044 16.9714 25.87 17.0747C25.87 17.1091 25.7669 17.178 25.7669 17.2125C25.7669 17.2814 25.8357 17.3847 25.9044 17.3847C25.9731 17.4191 26.0074 17.4536 26.0418 17.5225C26.0761 17.5914 26.1449 17.6258 26.1792 17.6947C26.2136 17.7291 26.1792 17.7636 26.2479 17.798C26.3166 17.8325 26.351 17.8669 26.4197 17.8669C26.6258 17.9703 26.832 18.0736 27.0038 18.2114C27.4847 18.5214 27.9314 18.9691 28.2062 19.4858C28.4811 20.0025 28.5498 20.6225 28.5498 21.1736C28.5498 21.2425 28.5154 21.4491 28.5498 21.4491C28.5841 21.4491 28.6872 21.4836 28.7215 21.4836C28.8933 21.5525 28.7215 21.7936 28.6872 21.8625C28.5841 22.1036 28.5841 22.3447 28.5841 22.6203C28.5841 22.7236 28.5841 22.8269 28.6185 22.9303C28.6528 23.068 28.7215 23.1369 28.7215 23.2747C28.7215 23.378 28.6872 23.5503 28.7215 23.6536C28.7215 23.7569 28.8246 23.7225 28.8933 23.7569C28.9964 23.7569 29.0307 23.8258 29.0995 23.8947C29.1338 23.9291 29.2369 24.0325 29.2025 24.1014C29.1338 24.1703 29.1338 24.1703 29.1338 24.2736C29.1338 24.308 29.1338 24.4114 29.0995 24.4458C29.0651 24.4458 29.0307 24.4458 28.9964 24.4458C28.8933 24.4458 28.9277 24.5491 28.8933 24.5836C28.859 24.6525 28.859 24.7214 28.859 24.8247C28.859 24.8936 28.9277 24.9625 28.9277 24.9969C28.9277 25.0658 28.8933 25.1003 28.8933 25.2036C28.9277 25.3414 28.962 25.3069 28.859 25.4103C28.7903 25.4791 28.7903 25.5136 28.7559 25.548C28.7559 25.6169 28.6872 25.6169 28.6872 25.6858V25.7547C28.6872 26.168 28.6872 26.5814 28.6872 26.9947V29.0958C28.6872 29.3714 28.6872 29.6814 28.6872 29.9569C28.6872 30.0603 28.7215 30.1291 28.7903 30.1636C28.859 30.2325 28.859 30.3014 28.962 30.3358C29.1338 30.4047 28.962 30.6458 28.8933 30.7491C28.7559 30.7836 28.8246 31.438 28.8246 31.5414V31.6447C28.8246 31.7136 28.8933 31.7825 28.8933 31.8514V31.9203C28.8933 32.0236 29.0651 32.0236 29.0995 32.1269C29.1682 32.2991 29.0995 32.4714 29.0995 32.678V33.3325C29.0995 33.3325 29.0995 33.3325 29.0995 33.3669C29.0995 33.3669 29.0995 33.3669 29.0995 33.4014L31.7792 34.0558C31.7449 34.0214 31.7105 33.9525 31.7105 33.918C31.7105 33.8491 31.7792 33.7803 31.7792 33.6769C31.7792 33.6425 31.7792 33.5736 31.7792 33.5391C31.7449 33.5047 31.7449 33.4358 31.7449 33.4014C31.7449 33.3325 31.7792 33.298 31.7105 33.2636C31.6761 33.2291 31.7105 33.1947 31.7449 33.1603C31.7449 33.1258 31.7449 33.0914 31.7449 33.0569C31.7449 33.0225 31.6418 32.8158 31.7105 32.7814C31.7449 32.7814 31.7792 32.7469 31.8136 32.7469C31.8136 32.7125 31.8136 32.678 31.8136 32.678C31.951 32.6436 31.951 32.5747 32.0541 32.5058L32.0884 32.4714C32.0884 32.4369 32.0541 32.4025 32.0541 32.3336L32.0884 32.2991C32.0884 32.2991 32.0884 32.2992 32.0884 32.2647C32.0884 32.2303 32.0884 32.1958 32.1228 32.1614C32.1571 32.1269 32.1915 32.1269 32.2258 32.1269C32.2945 32.1269 32.3289 32.1269 32.3289 32.1614C32.3633 32.1614 32.3633 32.1614 32.3633 32.1614C32.3976 32.1958 32.3976 32.2303 32.3976 32.2647C32.3976 32.2647 32.432 32.2647 32.432 32.2991L32.4663 32.3336C32.4663 32.4025 32.432 32.4369 32.432 32.4714L32.4663 32.5058C32.5694 32.5747 32.5694 32.6436 32.7068 32.678C32.7068 32.678 32.7068 32.7125 32.7068 32.7469C32.7412 32.7469 32.7412 32.7814 32.7755 32.7814C32.8442 32.8158 32.7068 32.988 32.7068 33.0569C32.7068 33.0914 32.7068 33.1258 32.7068 33.1947V33.2291C32.7068 33.298 32.6725 33.3669 32.6725 33.4358C32.6725 33.5391 32.6725 33.608 32.6725 33.7114C32.6725 33.7803 32.7412 33.8836 32.7412 33.9525C32.7412 34.0214 32.6725 34.1247 32.6038 34.1936L32.7068 34.228C32.7412 34.228 32.7755 34.2625 32.7755 34.2969V34.4347C32.8786 34.5036 32.8099 34.5725 32.7755 34.6758C32.7412 34.7792 32.6725 34.8136 32.6725 34.9169C32.6725 34.9514 32.8099 35.1236 32.7068 35.0891C32.6038 35.0891 32.6381 35.3991 32.6381 35.468C32.6381 35.5714 32.6038 35.5714 32.6381 35.7092C32.6725 35.778 32.7068 35.8125 32.7412 35.8814C32.7755 35.9503 32.7412 36.0191 32.7412 36.1225C32.7412 36.2947 33.2909 36.3292 33.3939 36.398C33.497 36.398 33.3596 36.7425 33.3252 36.8114C33.2909 36.8803 33.2909 37.018 33.2222 37.0869C33.1878 37.1558 33.1534 37.2247 33.1191 37.2936C33.0847 37.328 32.9473 37.2936 32.9473 37.3625C32.9473 37.4314 32.913 37.4658 32.913 37.5347C32.913 37.6036 32.913 37.638 32.8786 37.6725C32.7755 37.7414 32.7412 37.8103 32.7412 37.948C32.7412 37.9825 32.7412 38.0169 32.7412 38.0514C32.7412 38.0858 32.8099 38.0858 32.8099 38.1203C32.8099 38.1892 32.7412 38.2236 32.7412 38.2925C32.7412 38.3269 32.7755 38.6714 32.7755 38.7058C32.7755 38.7403 32.7412 38.8091 32.7412 38.8436V38.878C32.7412 39.3603 32.7412 40.4625 32.7412 40.9103C32.7412 41.5647 32.7412 41.048 32.7068 41.668V42.0125C32.7068 42.0125 32.7068 42.0469 32.7412 42.3569L34.0811 42.4603C34.0811 42.4258 34.0467 42.4258 34.0467 42.3914C34.0467 42.3225 34.1154 42.2536 34.1154 42.1503C34.1154 42.0469 34.1154 41.978 34.1154 41.8747C34.1154 41.7369 34.0467 41.6336 34.0467 41.4958C34.0467 41.4614 33.9436 41.2547 33.978 41.2203C34.0123 41.2203 34.0467 41.1858 34.0811 41.1858C34.0811 41.1514 34.0811 41.1169 34.0811 41.1169C34.2185 41.0825 34.2185 41.0136 34.3215 40.9447C34.3559 40.9447 34.3559 40.9103 34.3559 40.9103C34.3559 40.8758 34.3215 40.8414 34.3215 40.7725L34.3559 40.738C34.3559 40.7036 34.3559 40.6691 34.3903 40.6347C34.4246 40.6003 34.459 40.6003 34.4933 40.6003C34.562 40.6003 34.5964 40.6003 34.5964 40.6347C34.6307 40.6347 34.6307 40.6347 34.6307 40.6347C34.6651 40.6691 34.6651 40.7036 34.6651 40.738C34.6651 40.738 34.6995 40.738 34.6995 40.7725L34.7338 40.8069C34.7338 40.8758 34.6995 40.9103 34.6995 40.9447L34.7338 40.9791C34.8369 41.048 34.8369 41.1169 34.9743 41.1514C34.9743 41.1514 34.9743 41.1858 34.9743 41.2203C35.0087 41.2203 35.0087 41.2547 35.043 41.2547C35.1117 41.2891 34.9743 41.4614 34.9743 41.5303C34.9743 41.668 34.9056 41.7714 34.9399 41.9092C34.9399 42.0125 34.9399 42.0814 34.9399 42.1847C34.9399 42.2536 35.0087 42.3569 35.0087 42.4258C35.0087 42.4603 34.9743 42.4947 34.9743 42.5636L35.2835 42.598V43.1491C35.3179 43.1836 35.3179 43.218 35.2835 43.2525V44.2514L36.6921 44.3891V15.318C34.3559 11.7358 29.6491 9.53137 24.4958 9.53137ZM24.1866 16.558H24.7363C24.7363 16.558 24.7706 16.558 24.7706 16.5236V14.8703C24.7706 14.7325 24.6676 14.5603 24.5301 14.5258C24.4958 14.5258 24.4958 14.5258 24.4614 14.5258C24.2896 14.5258 24.1522 14.698 24.1522 14.8703L24.1866 16.558ZM23.7399 14.698C23.7056 14.698 23.7056 14.698 23.6712 14.698C23.5682 14.7325 23.4651 14.8014 23.4307 14.9736V16.6614C23.4307 16.6614 23.4307 16.6958 23.4651 16.6958L23.9117 16.5925C23.9117 16.5925 23.9461 16.5925 23.9461 16.558V14.9736C23.9461 14.8358 23.843 14.7325 23.7399 14.698ZM23.4995 24.2047V29.7503C23.4995 29.7847 23.5338 29.8191 23.5682 29.8191C23.5682 29.8191 23.5682 29.8191 23.6025 29.8191H25.4234C25.4577 29.8191 25.4921 29.7847 25.4921 29.7503V24.2047C25.4921 23.7225 25.1829 23.2747 24.7019 23.1714C24.6332 23.1714 24.5645 23.1369 24.4958 23.1369C23.9117 23.1714 23.4995 23.688 23.4995 24.2047ZM25.0455 16.5925L25.4921 16.6958C25.4921 16.6958 25.5264 16.6958 25.5264 16.6614V14.9736C25.4921 14.8358 25.4234 14.698 25.286 14.698C25.1485 14.6636 25.0455 14.8358 25.0455 14.9736V16.5925C25.0111 16.5925 25.0111 16.5925 25.0455 16.5925ZM26.5915 29.888C26.6258 29.888 26.6258 29.888 26.5915 29.888L27.7939 30.0258C27.8283 30.0258 27.8626 29.9914 27.8626 29.9569V24.618C27.8626 24.1703 27.6222 23.7914 27.2786 23.688C27.2442 23.688 27.1755 23.6536 27.1412 23.6536C26.7633 23.6536 26.5228 24.0669 26.5228 24.5836V29.7847C26.5571 29.8536 26.5915 29.888 26.5915 29.888Z" fill="#111111"/>
<path d="M21.816 43.7002C21.816 43.7002 21.816 43.6658 21.816 43.6313C21.816 43.5969 21.7472 43.4936 21.7472 43.4247C21.7472 43.3558 21.7472 43.1836 21.7472 43.1491C21.7472 43.1147 21.7472 42.9769 21.7472 42.9425C21.7129 42.8736 21.6098 42.5636 21.5755 42.3913C21.5411 42.2536 21.5068 42.0469 21.5068 42.0125C21.5068 41.978 21.5068 41.8402 21.5068 41.7713C21.5068 41.7025 21.5068 41.5991 21.5068 41.5647C21.5068 41.5302 21.5068 41.4958 21.5068 41.4958C21.5068 41.4958 21.4724 41.4958 21.438 41.5647C21.4037 41.6336 21.335 41.8058 21.3006 41.8402C21.2663 41.8747 21.2319 41.8747 21.2663 41.9091C21.2663 41.9436 21.1288 42.3225 21.0945 42.3913C21.0601 42.4602 21.0258 42.5291 21.0258 42.598C21.0258 42.6669 20.9227 42.8736 20.854 43.0113C20.7853 43.1147 20.7166 43.2869 20.6822 43.3213C20.6479 43.3558 20.5791 43.5969 20.5448 43.6313C20.5104 43.6658 20.2699 44.0791 20.2356 44.148C20.2012 44.2169 20.0295 44.458 20.0295 44.4925C19.9951 44.5613 19.8577 44.768 19.8233 44.8025C19.789 44.8369 19.7202 45.0091 19.7202 45.0091C19.7202 45.0091 19.6515 45.1469 19.6515 45.1813C19.6515 45.2158 19.6172 45.2502 19.6172 45.2847C19.6172 45.3191 19.4798 45.4569 19.4454 45.4913C19.4454 45.4913 19.4454 45.5602 19.411 45.6291C19.3767 45.698 19.2736 45.8013 19.2393 45.8358C19.1706 45.9047 19.1706 45.9047 19.1706 45.9047L20.4074 46.3525C20.4074 46.3525 20.6822 46.008 20.7166 45.9391C20.7509 45.8702 20.8883 45.7325 20.8883 45.698C20.9227 45.6636 21.0258 45.4225 21.0601 45.388C21.0945 45.3536 21.1288 45.2502 21.1632 45.2158C21.1976 45.1813 21.2663 45.078 21.2663 45.0436C21.3006 45.0091 21.335 44.9402 21.335 44.9058C21.335 44.8713 21.4037 44.768 21.438 44.7336C21.4724 44.6647 21.5411 44.5958 21.5755 44.5958C21.6098 44.5958 21.7472 44.5269 21.7472 44.5269C21.7816 44.5269 21.7816 44.458 21.7816 44.4236C21.7816 44.3891 21.7816 44.3547 21.7816 44.3202C21.7816 44.2858 21.816 44.2169 21.816 44.1825C21.816 44.148 21.8503 44.1136 21.8503 44.1136C21.8503 44.1136 21.816 44.0447 21.816 44.0102C21.816 43.9413 21.816 43.838 21.816 43.8036C21.816 43.7347 21.816 43.7002 21.816 43.7002ZM31.1607 46.318L31.1264 46.2147C31.1264 46.2147 31.0577 46.1458 31.092 46.1113C31.1264 46.0769 31.1264 46.0425 31.1264 46.0425C31.1264 46.0425 31.1264 46.008 31.092 45.9736C31.0577 45.9391 30.989 45.8358 30.9546 45.7669C30.9202 45.698 30.8859 45.698 30.8859 45.698C30.8859 45.698 30.7485 45.5947 30.6798 45.4225C30.5767 45.2502 30.4736 45.1469 30.4393 45.078C30.4393 45.0091 30.3362 44.8713 30.3362 44.8713C30.3362 44.8713 30.1301 44.5613 30.0957 44.5613C30.0614 44.5269 29.8896 44.2169 29.8552 44.2169C29.8209 44.1825 29.546 43.8036 29.5117 43.7002C29.4773 43.6313 29.2368 43.218 29.2025 43.1836C29.1681 43.1491 28.9963 42.8047 28.962 42.7358C28.9276 42.6669 28.6184 42.0813 28.5841 41.978C28.5497 41.8747 28.2748 41.4269 28.2405 41.358C28.2061 41.2891 28.1374 41.1858 28.1374 41.1169C28.1031 41.048 28.0344 40.9791 28.0344 40.9791H27.9656V41.048C27.9656 41.0825 27.9313 41.1513 27.9313 41.1513C27.9313 41.1858 27.8969 41.3236 27.8969 41.358C27.8969 41.4269 27.8282 41.5302 27.8282 41.5991C27.8282 41.668 27.7939 41.8058 27.7939 41.8402C27.7939 41.8747 27.7595 41.978 27.7595 42.0125C27.7595 42.0469 27.7252 42.1502 27.7252 42.1847C27.7252 42.2191 27.6564 42.3225 27.6564 42.3569C27.6564 42.3913 27.6221 42.4947 27.6221 42.5636C27.6221 42.6325 27.6221 42.6669 27.6221 42.7358C27.6221 42.7702 27.6221 42.8047 27.5877 42.8736C27.5534 42.908 27.5534 42.9769 27.519 43.0113C27.519 43.0458 27.4847 43.218 27.4847 43.2525C27.4847 43.2869 27.4503 43.3558 27.4503 43.3902C27.4503 43.4247 27.4503 43.4591 27.416 43.528C27.416 43.5625 27.416 43.6313 27.3816 43.6658C27.3816 43.7002 27.3129 43.7691 27.3129 43.7691L27.2785 43.838C27.2785 43.838 27.2785 43.8725 27.3129 43.8725C27.3472 43.8725 27.3472 43.9758 27.3816 44.0447C27.3816 44.0791 27.416 44.1136 27.416 44.1825C27.416 44.2169 27.416 44.3547 27.416 44.3547V44.4236C27.416 44.4236 27.5877 44.5269 27.6221 44.5613C27.6564 44.5958 27.7939 44.768 27.7939 44.8369C27.8282 44.8713 27.9313 45.1125 27.9313 45.1813C27.9313 45.2502 28 45.3536 28.0344 45.4225C28.0344 45.4913 28.1031 45.5947 28.1374 45.6636C28.1374 45.7325 28.2061 45.7669 28.2405 45.8358C28.2748 45.9047 28.3092 45.9736 28.3092 46.0769C28.3092 46.1802 28.3436 46.2836 28.3436 46.2836C28.3436 46.2836 28.3779 46.2491 28.4466 46.2491C28.5153 46.2491 28.7215 46.318 28.7902 46.3525C28.8589 46.3869 28.962 46.3869 28.9963 46.3869C29.0307 46.3869 29.2368 46.3525 29.3055 46.3525C29.3399 46.3525 29.4429 46.3869 29.4773 46.3525C29.5117 46.3525 29.6147 46.3869 29.6491 46.3869C29.6834 46.3869 29.7865 46.4213 29.8552 46.4558C29.9239 46.4902 30.027 46.5591 30.0957 46.5591C30.1644 46.5936 30.2675 46.6625 30.3018 46.6969C30.3362 46.7313 30.4393 46.8002 30.4393 46.8002H30.5767H30.7141C30.7141 46.8002 30.7828 46.7658 30.8172 46.7658H30.9202C30.9202 46.7658 30.989 46.7313 31.0233 46.7313C31.0577 46.7313 31.1607 46.7313 31.1607 46.7313C31.1607 46.7313 31.1607 46.6969 31.2295 46.6625C31.2982 46.628 31.3325 46.5936 31.3325 46.5936C31.3325 46.5936 31.2982 46.4558 31.2638 46.3869C31.1951 46.4213 31.1607 46.318 31.1607 46.318ZM35.5239 44.0791V43.0802C35.5583 43.0458 35.5583 43.0113 35.5239 42.9769V42.4258L35.2147 42.3913C35.2491 42.3569 35.2491 42.288 35.2834 42.2536C35.2834 42.1847 35.2147 42.1158 35.2147 42.0125C35.2147 41.9091 35.2147 41.8402 35.2147 41.7369C35.2147 41.5991 35.2834 41.4958 35.2491 41.358C35.2491 41.3236 35.3521 41.1169 35.3178 41.0825C35.2834 41.0825 35.2491 41.048 35.2491 41.048C35.2491 41.0136 35.2491 40.9791 35.2491 40.9791C35.1117 40.9102 35.1117 40.8758 35.0086 40.7725C34.9742 40.7725 34.9742 40.738 34.9742 40.738C34.9742 40.7036 35.0086 40.6691 35.0086 40.6002L34.9742 40.5658C34.9742 40.5658 34.9742 40.5313 34.9399 40.5313C34.9399 40.4969 34.9399 40.4625 34.9055 40.428C34.9055 40.428 34.9055 40.428 34.8712 40.428C34.8712 40.428 34.8025 40.3936 34.7681 40.3936C34.7337 40.3936 34.6994 40.3936 34.665 40.428C34.6307 40.4625 34.6307 40.4969 34.6307 40.5313C34.6307 40.5658 34.5963 40.5658 34.5963 40.5658C34.5963 40.6347 34.6307 40.6691 34.6307 40.7036L34.5963 40.738C34.4933 40.8069 34.4933 40.8758 34.3558 40.9102C34.3558 40.9102 34.3558 40.9447 34.3558 40.9791C34.3215 40.9791 34.2871 41.0136 34.2528 41.0136C34.1841 41.048 34.3215 41.2202 34.3215 41.2891C34.3215 41.4269 34.3902 41.5302 34.3902 41.668C34.3902 41.7713 34.3902 41.8402 34.3902 41.9436C34.3902 42.0125 34.3215 42.0813 34.3215 42.1847C34.3215 42.2191 34.3215 42.2191 34.3558 42.2536L33.016 42.1502C32.9816 41.8402 32.9816 41.8402 32.9816 41.8058V41.4613C32.9816 40.8413 32.9816 41.358 33.016 40.7036C33.016 40.2213 33.016 39.1191 33.016 38.6713V38.6369C33.016 38.568 33.0503 38.5336 33.0503 38.4991C33.0503 38.4647 33.016 38.1202 33.016 38.0858C33.016 38.0169 33.0847 37.948 33.0847 37.9136C33.0847 37.8791 33.0503 37.8791 33.016 37.8447C33.016 37.8102 33.016 37.7758 33.016 37.7413C33.016 37.638 33.0503 37.5347 33.1534 37.4658C33.2221 37.4313 33.1877 37.3969 33.1877 37.328C33.1877 37.2591 33.2221 37.2247 33.2221 37.1558C33.2221 37.0869 33.3595 37.1213 33.3939 37.0869C33.4626 37.0525 33.4626 36.9491 33.4969 36.8802C33.5313 36.8113 33.5656 36.6736 33.6 36.6047C33.6344 36.5358 33.7718 36.1913 33.6687 36.1913C33.5656 36.1225 33.016 36.1225 33.016 35.9158C33.016 35.8469 33.016 35.778 33.016 35.6747C32.9816 35.6058 32.9472 35.5713 32.9129 35.5025C32.8785 35.3991 32.9129 35.3991 32.9129 35.2613C32.9129 35.2269 32.8785 34.8825 32.9816 34.8825C33.0847 34.8825 32.9472 34.7447 32.9472 34.7102C32.9472 34.6069 33.016 34.5725 33.0503 34.4691C33.0847 34.3658 33.119 34.3313 33.0503 34.228V34.0902C33.0503 34.0558 33.016 34.0213 32.9816 34.0213H32.8785C32.9472 33.9525 33.016 33.8491 33.016 33.7802C33.016 33.7113 32.9472 33.6425 32.9472 33.5391C32.9472 33.4358 32.9472 33.3669 32.9472 33.2636C32.9472 33.1947 32.9472 33.1258 32.9816 33.0569V33.0225C32.9816 32.988 32.9816 32.9536 32.9816 32.8847C32.9816 32.8502 33.0847 32.6436 33.0503 32.6091C33.016 32.6091 32.9816 32.5747 32.9816 32.5747C32.9816 32.5402 32.9816 32.5058 32.9816 32.5058C32.8442 32.4713 32.8442 32.4025 32.7411 32.3336C32.7067 32.3336 32.7068 32.2991 32.7068 32.2991C32.7068 32.2647 32.7411 32.2302 32.7411 32.1613L32.7068 32.1269C32.7068 32.1269 32.7068 32.0925 32.6724 32.0925C32.6724 32.058 32.6724 32.0236 32.638 31.9891C32.638 31.9891 32.638 31.9891 32.6037 31.9891C32.5693 31.9891 32.535 31.9547 32.5006 31.9547C32.4663 31.9547 32.4319 31.9547 32.3975 31.9891C32.3632 32.0236 32.3632 32.058 32.3632 32.0925L32.3288 32.1269C32.3288 32.1958 32.3632 32.2302 32.3632 32.2647L32.3288 32.2991C32.2258 32.368 32.2258 32.4369 32.0883 32.4713C32.0883 32.4713 32.0883 32.5058 32.0883 32.5402C32.054 32.5402 32.0196 32.5747 31.9853 32.5747C31.9166 32.6091 32.054 32.7813 32.0196 32.8502C32.0196 32.8847 32.0196 32.9191 32.0196 32.9536C31.9509 32.988 31.9509 32.988 31.9853 33.0569C32.054 33.1258 32.0196 33.1258 32.0196 33.1947C32.0196 33.2291 32.0196 33.298 32.054 33.3325C32.054 33.4013 32.054 33.4358 32.054 33.5047C32.054 33.5736 31.9853 33.6425 31.9853 33.7458C31.9853 33.7802 32.0196 33.8491 32.054 33.8836L29.3742 33.2291C29.3742 33.2291 29.3742 33.2291 29.3742 33.1947C29.3742 33.1947 29.3742 33.1947 29.3742 33.1602V32.5058C29.3742 32.2991 29.4429 32.1613 29.3742 31.9547C29.3399 31.8513 29.1681 31.8514 29.1681 31.748V31.8513C29.1681 31.7825 29.0994 31.7136 29.0994 31.6447V31.5069C29.0994 31.4036 29.0307 30.7491 29.1681 30.7147C29.2368 30.6114 29.3742 30.3702 29.2368 30.3013C29.1337 30.2669 29.1337 30.198 29.065 30.1636C28.962 30.1291 28.962 30.0602 28.962 29.9569C28.962 29.6813 28.962 29.3713 28.962 29.0958V26.9947C28.962 26.5813 28.962 26.168 28.962 25.7547V25.6858C28.962 25.6169 29.0307 25.6169 29.0307 25.548C29.065 25.4791 29.065 25.4447 29.1337 25.4102C29.2368 25.3069 29.2025 25.3414 29.1681 25.2036C29.1337 25.1347 29.1681 25.0658 29.2025 24.9969C29.2025 24.928 29.1337 24.8936 29.1337 24.8247C29.1337 24.7558 29.1337 24.6869 29.1681 24.5836C29.2025 24.5147 29.1681 24.4458 29.2712 24.4458C29.3055 24.4458 29.3399 24.4458 29.3742 24.4458C29.4086 24.4113 29.4086 24.3425 29.4086 24.2736C29.4086 24.1702 29.4086 24.1702 29.4773 24.1013C29.5117 24.0325 29.4086 23.9636 29.3742 23.8947C29.3055 23.8258 29.2712 23.7569 29.1681 23.7569C29.0994 23.7225 28.9963 23.7569 28.9963 23.6536C28.962 23.5502 28.9963 23.378 28.9963 23.2747C28.9963 23.1369 28.9276 23.068 28.8933 22.9302C28.8589 22.8269 28.8589 22.7236 28.8589 22.6202C28.8589 22.3447 28.8589 22.1036 28.962 21.8625C28.9963 21.7936 29.1681 21.518 28.9963 21.4836C28.962 21.4491 28.8933 21.4491 28.8245 21.4147C28.7558 21.3802 28.7902 21.208 28.8245 21.1391C28.8589 20.5536 28.7558 19.968 28.481 19.4513C28.2061 18.9691 27.7595 18.5213 27.2785 18.2113C27.0724 18.0736 26.9006 17.9702 26.6945 17.8669C26.6258 17.8325 26.5914 17.798 26.5227 17.798C26.454 17.7636 26.4883 17.6947 26.454 17.6947C26.3853 17.6258 26.3166 17.5913 26.3166 17.5225C26.2822 17.4191 26.2479 17.4191 26.1791 17.3847C26.1104 17.3502 26.0417 17.2813 26.0417 17.2125C26.0417 17.178 26.1104 17.1091 26.1448 17.0747C26.1791 16.9713 26.0761 17.0058 26.0417 16.9369C26.0074 16.9025 26.0074 16.868 26.0074 16.8336C26.0074 16.7647 25.973 16.7302 25.973 16.6613C25.973 16.5925 25.973 16.558 25.973 16.4891V15.0425C25.973 14.9391 26.1448 14.9391 26.1448 14.8358C26.1448 14.7669 26.0761 14.8013 26.0417 14.7669C25.973 14.7669 26.0074 14.698 25.973 14.6291C25.9387 14.5947 25.9043 14.5602 25.9387 14.4913C25.9387 14.4225 25.9387 14.3536 25.9387 14.2847C25.8699 13.9747 25.6638 13.6991 25.389 13.5269C25.2859 13.458 25.0454 13.4236 25.0454 13.4236C25.0798 13.3547 24.9767 13.0791 24.9767 13.0102C24.9423 12.9069 24.9423 12.838 24.908 12.7347C24.8736 12.6313 24.8049 12.4247 24.6675 12.4247C24.5301 12.4247 24.4614 12.6313 24.427 12.7347C24.3926 12.838 24.3583 12.9069 24.3583 13.0102C24.3239 13.0791 24.2552 13.3202 24.2896 13.4236C24.2896 13.4236 24.0491 13.4925 23.946 13.5269C23.6368 13.6647 23.465 13.9402 23.3963 14.2847C23.3963 14.3536 23.3963 14.4225 23.3963 14.4913C23.3963 14.5602 23.362 14.5602 23.362 14.6291C23.3276 14.698 23.362 14.7325 23.2933 14.7669C23.2589 14.8013 23.1902 14.7669 23.1902 14.8358C23.1902 14.9391 23.362 14.9391 23.362 15.0425V16.4891C23.362 16.5236 23.362 16.5925 23.362 16.6613C23.3276 16.7302 23.3276 16.7647 23.3276 16.8336C23.3276 16.868 23.3276 16.9025 23.3276 16.9369C23.2933 16.9714 23.1902 16.9713 23.2245 17.0747C23.2589 17.1091 23.3276 17.178 23.3276 17.2125C23.3276 17.2813 23.2589 17.3847 23.1902 17.3847C23.1215 17.4191 23.0871 17.4536 23.0528 17.5225C23.0184 17.5913 22.9497 17.6258 22.881 17.6947C22.8466 17.7291 22.881 17.7636 22.8123 17.798C22.7436 17.8325 22.7092 17.8669 22.6405 17.8669C22.4344 17.9702 22.2282 18.0736 22.0564 18.2113C21.6098 18.5213 21.1288 18.9691 20.854 19.4513C20.5791 19.968 20.5104 20.588 20.5104 21.1391C20.5104 21.208 20.5791 21.4147 20.5104 21.4147C20.4761 21.4147 20.373 21.4491 20.3387 21.4836C20.1669 21.5525 20.3387 21.7936 20.373 21.8625C20.4761 22.1036 20.4761 22.3447 20.4761 22.6202C20.4761 22.7236 20.4761 22.8269 20.4417 22.9302C20.4074 23.068 20.3387 23.1369 20.3387 23.2747C20.3387 23.378 20.373 23.5502 20.3387 23.6536C20.3387 23.7569 20.2356 23.7225 20.1669 23.7569C20.0638 23.7569 20.0295 23.8258 19.9607 23.8947C19.9264 23.9291 19.8233 24.0325 19.8577 24.1013C19.892 24.1702 19.9264 24.1702 19.9264 24.2736C19.9264 24.308 19.9264 24.4113 19.9951 24.4458C20.0295 24.4458 20.0638 24.4458 20.0638 24.4458C20.1669 24.4458 20.1325 24.5491 20.1669 24.5836C20.2012 24.6525 20.2012 24.7213 20.2012 24.8247C20.2012 24.8936 20.1325 24.9625 20.1325 24.9969C20.1325 25.0658 20.1669 25.1002 20.1669 25.2036C20.1325 25.3414 20.0982 25.3069 20.2012 25.4102C20.2699 25.4791 20.2699 25.5136 20.3043 25.548C20.3043 25.6169 20.373 25.6169 20.373 25.6858V25.7547C20.373 26.168 20.373 26.5813 20.373 26.9947C20.373 28.3036 20.373 27.7869 20.3387 29.0958C20.3387 29.3713 20.3387 29.6813 20.3387 29.9569C20.3387 30.0602 20.3043 30.1291 20.2356 30.1636C20.1669 30.2325 20.1669 30.3013 20.0638 30.3013C19.892 30.3702 20.0638 30.6114 20.1325 30.7147C20.3043 30.7491 20.2012 31.4036 20.2012 31.5069V31.6102C20.2012 31.6791 20.1325 31.748 20.1325 31.8169V32.0236C20.1325 32.1269 19.9607 32.1269 19.9264 32.2302C19.8577 32.4025 19.9264 32.4713 19.9264 32.6436V33.2291V33.298C19.9264 33.298 19.9264 33.3325 19.892 33.3325H19.8577L17.2466 33.9525C17.281 33.918 17.3153 33.8491 17.3153 33.8147C17.3153 33.7458 17.2466 33.6769 17.2466 33.5736C17.2466 33.5047 17.2466 33.4358 17.2466 33.3669C17.2466 33.3325 17.2466 33.298 17.2466 33.2636C17.2466 33.2291 17.2466 33.2291 17.2466 33.1947C17.2466 33.1602 17.2466 33.1602 17.2466 33.1258L17.281 33.0913C17.3153 33.0569 17.3153 33.0225 17.281 33.0225C17.281 32.988 17.281 32.9536 17.281 32.9191C17.281 32.8847 17.3841 32.678 17.3497 32.6436C17.3153 32.6436 17.281 32.6091 17.2466 32.6091C17.2466 32.5747 17.2466 32.5402 17.2466 32.5402C17.1092 32.5058 17.1092 32.4369 17.0061 32.368L16.9718 32.3336C16.9718 32.2991 17.0061 32.2647 17.0061 32.1958L16.9718 32.1613C16.9718 32.1613 16.9718 32.1613 16.9718 32.1269C16.9718 32.0925 16.9718 32.058 16.9374 32.0236C16.9031 31.9891 16.8687 31.9891 16.8344 31.9891C16.7656 31.9891 16.7313 31.9891 16.7313 32.0236C16.6969 32.0236 16.6969 32.0236 16.6969 32.0236C16.6626 32.058 16.6626 32.0925 16.6626 32.1269C16.6626 32.1269 16.6282 32.1269 16.6282 32.1613L16.5939 32.1958C16.5939 32.2647 16.6282 32.2991 16.6282 32.3336L16.5939 32.368C16.4908 32.4369 16.4908 32.5058 16.3534 32.5402C16.319 32.5402 16.3534 32.5747 16.3534 32.6091C16.319 32.6091 16.319 32.6436 16.2847 32.6436C16.216 32.678 16.3534 32.8502 16.3534 32.9191C16.3534 32.9536 16.3534 32.988 16.3534 33.0225C16.319 33.0225 16.319 33.0569 16.3534 33.0913L16.3877 33.1258C16.3877 33.1602 16.3877 33.1947 16.3877 33.1947V33.2291C16.3877 33.2636 16.3877 33.298 16.3877 33.298C16.3877 33.3669 16.3877 33.4358 16.3877 33.5047C16.3877 33.5736 16.319 33.6769 16.319 33.7458C16.319 33.8147 16.3877 33.918 16.4564 33.9869H16.3877C16.3534 33.9869 16.319 34.0213 16.319 34.0558V34.1591C16.2847 34.1591 16.2503 34.1936 16.2503 34.1936C16.1472 34.2625 16.216 34.2969 16.2503 34.4347C16.2847 34.538 16.3534 34.5725 16.3534 34.6758C16.3534 34.7102 16.216 34.8825 16.3534 34.848C16.4564 34.848 16.4221 35.1925 16.4221 35.2269C16.4221 35.3302 16.4564 35.3302 16.4221 35.468C16.3877 35.5369 16.3534 35.5713 16.319 35.6402C16.2847 35.7091 16.319 35.778 16.319 35.8813C16.319 36.0536 15.7693 36.088 15.6663 36.1569C15.5632 36.1569 15.7006 36.5013 15.735 36.5702C15.7693 36.6391 15.7693 36.7769 15.838 36.8458C15.8724 36.9147 15.9068 36.9836 15.9411 37.0525C15.9755 37.0869 16.1472 37.0525 16.1472 37.1213C16.1472 37.1902 16.1816 37.2247 16.1816 37.2936C16.1816 37.3625 16.1816 37.4313 16.2503 37.4658C16.3534 37.5347 16.3877 37.6036 16.3877 37.7413C16.3877 37.7758 16.3877 37.8102 16.3877 37.8447C16.3877 37.8791 16.319 37.8791 16.319 37.8791C16.319 37.948 16.3877 37.9825 16.3877 38.0513C16.3877 38.0858 16.3534 38.4302 16.3534 38.4647C16.3534 38.5336 16.3877 38.568 16.3877 38.6025V38.6369C16.3877 39.1191 16.3877 40.2213 16.3877 40.7036C16.3877 41.3236 16.3877 40.8413 16.4221 41.4613V41.8058C16.4221 41.8058 16.4221 41.8402 16.3877 42.1502L15.0479 42.2536C15.0822 42.1847 15.1166 42.1502 15.1166 42.1158C15.1166 42.0469 15.0479 41.978 15.0479 41.8747C15.0479 41.8058 15.0479 41.7025 15.0479 41.5991C15.0479 41.4613 15.1166 41.358 15.1166 41.2202C15.1166 41.1858 15.2196 40.9791 15.1853 40.9447C15.1509 40.9447 15.1166 40.9102 15.0822 40.9102C15.0822 40.8758 15.0822 40.8413 15.0822 40.8413C14.9448 40.8069 14.9448 40.738 14.8417 40.6691L14.8074 40.6347C14.8074 40.6002 14.8417 40.5658 14.8417 40.4969L14.8074 40.4625C14.8074 40.4625 14.8074 40.4625 14.8074 40.428C14.8074 40.3936 14.8074 40.3591 14.773 40.3247C14.7387 40.2902 14.7043 40.2902 14.6699 40.2902C14.6012 40.2902 14.5669 40.2902 14.5669 40.3247C14.5325 40.3247 14.5325 40.3247 14.5325 40.3247C14.4982 40.3591 14.4982 40.3936 14.4982 40.428C14.4638 40.428 14.4638 40.428 14.4638 40.4625L14.4295 40.4969C14.4295 40.5658 14.4638 40.6002 14.4638 40.6347L14.4295 40.6691C14.3264 40.738 14.3264 40.8069 14.189 40.8413C14.189 40.8413 14.189 40.8758 14.189 40.9102C14.1546 40.9102 14.1546 40.9447 14.1203 40.9447C14.0515 40.9791 14.1546 41.1513 14.1546 41.2202C14.1546 41.358 14.2233 41.4613 14.189 41.5991C14.189 41.7025 14.189 41.7713 14.189 41.8747C14.189 41.9436 14.1203 42.0469 14.1203 42.1158C14.1203 42.1847 14.189 42.2536 14.2233 42.3225L13.8454 42.3569V42.8391C13.811 42.8736 13.811 42.908 13.8454 42.908V43.9758L12.3681 44.1136V47.4547L14.7387 47.4202V46.1113V46.0425L14.773 46.008C14.8074 46.008 16.1129 45.9047 16.1816 45.8702V45.8358C16.1816 45.8013 16.2503 45.7669 16.2503 45.7325C16.2847 45.698 16.4908 45.6636 16.5252 45.6636C16.5595 45.6636 16.5939 45.6291 16.6282 45.6291C16.6626 45.6291 16.7656 45.6291 16.8 45.6291C16.8344 45.6291 16.8344 45.5947 16.8687 45.5947L16.9031 45.5602C16.9031 45.5602 16.9718 45.5258 17.0061 45.5258C17.0405 45.5258 17.0749 45.5258 17.1436 45.5602C17.2123 45.5602 17.281 45.5258 17.281 45.5258C17.281 45.5258 17.3153 45.4913 17.3497 45.4913C17.3841 45.4913 17.4184 45.4913 17.4528 45.4913C17.4871 45.4913 17.5215 45.4913 17.5215 45.4913H17.5558C17.5558 45.4913 17.5558 45.5258 17.5902 45.4913C17.6245 45.4913 17.6589 45.4913 17.6589 45.4913C17.6589 45.4913 17.6933 45.4569 17.6933 45.4225C17.6933 45.4225 17.7276 45.388 17.7276 45.3191L17.762 45.2502C17.762 45.2502 17.762 45.2158 17.7963 45.1813C17.8307 45.1125 17.8307 45.078 17.8307 45.078C17.8307 45.078 17.8307 45.0436 17.865 45.0091C17.865 44.9747 17.8994 44.9747 17.8994 44.9402C17.9337 44.9058 17.9337 44.9058 17.9337 44.9058C17.9337 44.9058 17.9681 44.8713 17.9681 44.8369C18.0025 44.8025 18.0368 44.6991 18.0368 44.6991C18.0712 44.6647 18.1055 44.5613 18.1399 44.5269C18.1742 44.4925 18.2086 44.458 18.2086 44.458L18.2429 44.3891C18.2429 44.3891 18.346 44.0791 18.3804 44.0102C18.4147 43.9413 18.5178 43.7691 18.5522 43.7002C18.5865 43.6313 18.6552 43.4591 18.6552 43.4247C18.6552 43.3902 18.7583 43.1836 18.7583 43.1491C18.7583 43.1147 18.8614 42.908 18.8614 42.8736C18.8614 42.8391 18.9301 42.7013 18.9301 42.6669C18.9301 42.6325 18.9988 42.5291 18.9988 42.4947C19.0331 42.4602 19.0675 42.3913 19.0675 42.3569C19.0675 42.3225 19.1018 42.2191 19.1362 42.1502C19.1706 42.1158 19.2049 42.0125 19.2049 41.978C19.2393 41.9436 19.2736 41.8747 19.2736 41.8402C19.2736 41.8058 19.308 41.7369 19.3423 41.7369C19.3423 41.7369 19.411 41.6336 19.4454 41.5991C19.4798 41.5647 19.5485 41.4958 19.5485 41.4613C19.5485 41.4269 19.5828 41.3925 19.6172 41.358C19.6172 41.3236 19.6859 41.2202 19.6859 41.1858C19.6859 41.1513 19.7203 41.048 19.7546 41.0136C19.7546 40.9791 19.8233 40.8413 19.8233 40.8069C19.8233 40.7725 19.892 40.6347 19.892 40.6002C19.9264 40.5658 19.9264 40.4969 19.9264 40.4969C19.9264 40.4625 19.9951 40.3591 20.0295 40.3247C20.0638 40.2902 20.0638 40.2213 20.0638 40.1869C20.0982 40.1525 20.1325 40.0836 20.1325 40.0491C20.1325 40.0147 20.2012 39.9458 20.2012 39.9113C20.2356 39.8769 20.2356 39.8769 20.2699 39.808C20.3043 39.7736 20.3387 39.7391 20.3387 39.7047C20.3387 39.6702 20.373 39.6358 20.4074 39.6013C20.4074 39.5669 20.4417 39.5669 20.4417 39.5669C20.4417 39.5669 20.4761 39.4636 20.4761 39.4291C20.4761 39.3947 20.5104 39.3602 20.5104 39.3602C20.5104 39.3602 20.5104 39.1536 20.5448 39.1191C20.5791 39.0847 20.5791 38.9813 20.6135 38.9469C20.6135 38.9125 20.6479 38.878 20.6479 38.878C20.6479 38.878 20.7166 38.7402 20.7166 38.7058C20.7166 38.6713 20.7509 38.6025 20.7853 38.568C20.7853 38.5336 20.854 38.3958 20.854 38.3613C20.854 38.3269 20.9227 38.2925 20.9227 38.2925C20.9227 38.2925 20.9571 38.1891 20.9914 38.1547C20.9914 38.1547 21.0258 38.0513 21.0258 38.0169C21.0258 37.9825 21.0601 37.9136 21.0945 37.8791C21.1288 37.8447 21.1632 37.7758 21.1632 37.7413C21.1976 37.7069 21.2663 37.6036 21.2663 37.5691C21.2663 37.5347 21.335 37.4658 21.4037 37.4313C21.438 37.3969 21.5411 37.3625 21.5755 37.3625C21.6098 37.3625 21.6442 37.3625 21.6785 37.3625C21.7129 37.3625 21.7129 37.3625 21.7472 37.3625C21.7472 37.3625 21.7816 37.328 21.816 37.328C21.8503 37.328 21.8503 37.2936 21.8847 37.2936C21.919 37.2936 21.9534 37.2591 21.9877 37.2591C22.0221 37.2591 22.0564 37.2247 22.0564 37.2247C22.0564 37.2247 22.0908 37.1902 22.1252 37.1902C22.1595 37.1902 22.1939 37.1558 22.2282 37.1558C22.2626 37.1558 22.2969 37.1213 22.3313 37.1213C22.3656 37.1213 22.4 37.1213 22.4344 37.1213C22.4344 37.1213 22.4687 37.0869 22.5031 37.0869C22.5374 37.0869 22.5718 37.0525 22.5718 37.0525H22.6061H22.6749C22.6749 37.0525 22.7436 37.018 22.8123 36.9836C22.881 36.9491 22.9153 36.9491 22.9841 36.9147C23.0528 36.8802 23.0871 36.8458 23.1215 36.8458L23.1558 36.8113C23.1558 36.8113 23.1902 36.7769 23.2245 36.7425C23.2589 36.708 23.3963 36.5702 23.465 36.5358C23.4994 36.5013 23.6025 36.398 23.6368 36.3636C23.6712 36.3291 23.7399 36.2258 23.7399 36.1913C23.7742 36.1569 23.8429 36.0191 23.8429 36.0191C23.8429 35.9847 23.9117 35.8813 23.946 35.8469C23.9804 35.8125 24.0491 35.778 24.0834 35.778C24.1178 35.7436 24.1521 35.7436 24.1521 35.7436C24.1521 35.7436 24.1521 35.7091 24.1521 35.6747C24.1521 35.6402 24.1521 35.6058 24.1521 35.6058C24.1521 35.6058 24.1178 35.468 24.1178 35.4336C24.1178 35.3991 24.1178 35.2613 24.1178 35.2613V35.1925C24.1178 35.1925 24.0834 35.2269 24.0491 35.2269C24.0147 35.2269 23.9804 35.2269 23.946 35.158C23.9117 35.1236 23.9117 35.0547 23.9117 35.0202C23.9117 34.9858 23.8773 34.9169 23.8773 34.8825C23.8773 34.848 23.8429 34.8136 23.8429 34.7791C23.8429 34.7447 23.8429 34.7447 23.8086 34.7447C23.7742 34.7447 23.7742 34.7102 23.7742 34.7102C23.7399 34.7102 23.7399 34.7102 23.7399 34.7102H23.7055C23.6712 34.7102 23.6712 34.6758 23.6368 34.6758C23.6025 34.6758 23.5337 34.6069 23.5337 34.6069C23.5337 34.6069 23.465 34.538 23.4307 34.5036C23.4307 34.4691 23.3963 34.3313 23.3963 34.2969C23.3963 34.2625 23.3963 34.1591 23.3963 34.1591V34.0902V33.9525C23.3963 33.918 23.3963 33.8836 23.4307 33.8491C23.465 33.8147 23.465 33.7802 23.465 33.7802C23.465 33.7802 23.465 33.7113 23.4994 33.6769C23.4994 33.6425 23.5337 33.608 23.5681 33.5736C23.6025 33.5391 23.6368 33.5047 23.6368 33.4702C23.6712 33.4702 23.6712 33.4358 23.7055 33.4013C23.7399 33.4013 23.7399 33.3669 23.7399 33.3325C23.7742 33.298 23.7742 33.2636 23.7742 33.2291C23.7742 33.1947 23.8086 33.1602 23.8086 33.1602L23.8429 33.0913C23.8429 33.0569 23.9117 32.9191 23.9117 32.8847C23.9117 32.8502 24.0491 32.7125 24.1521 32.6436C24.2209 32.6091 24.2552 32.5747 24.2552 32.5747L24.3239 32.5402C24.3239 32.5402 24.3926 32.5058 24.4614 32.5058C24.4614 32.5058 24.5301 32.4714 24.5988 32.4369H24.6675C24.6675 32.4369 24.7362 32.368 24.7362 32.3336C24.7362 32.2991 24.8393 32.2647 24.8736 32.2302C24.908 32.2302 24.9423 32.1958 24.9423 32.1958C24.9423 32.1958 25.011 32.1613 25.0454 32.1269C25.0798 32.1269 25.0798 32.0925 25.1485 32.0925C25.2172 32.0925 25.3202 32.0925 25.3546 32.0925C25.389 32.0925 25.492 32.1269 25.5264 32.1269C25.5607 32.1269 25.6295 32.1613 25.6295 32.1613C25.6638 32.1613 25.7325 32.1958 25.7669 32.2302C25.8012 32.2302 25.8356 32.2647 25.8356 32.2991C25.8699 32.3336 25.9387 32.368 25.9387 32.368L26.0074 32.4025C26.0074 32.4369 26.0761 32.4713 26.0761 32.4713C26.1104 32.4713 26.1448 32.5402 26.1791 32.5747C26.2135 32.6091 26.2479 32.6436 26.2822 32.678C26.3166 32.678 26.3853 32.7814 26.4196 32.7814C26.454 32.8158 26.4883 32.8502 26.4883 32.8847C26.4883 32.9191 26.5227 32.9536 26.5227 33.0225C26.5227 33.0569 26.5227 33.1947 26.5227 33.1947C26.5227 33.1947 26.5227 33.1947 26.5571 33.2291C26.5914 33.2636 26.6258 33.298 26.6601 33.3325C26.6601 33.3669 26.6945 33.4013 26.6945 33.4358C26.6945 33.4702 26.7288 33.5391 26.7288 33.5391C26.7288 33.5391 26.7632 33.5391 26.7632 33.5736C26.7632 33.608 26.7632 33.6425 26.7975 33.6425C26.7975 33.6425 26.8319 33.6769 26.8319 33.7113C26.8319 33.7458 26.8319 33.7802 26.8319 33.8147L26.8663 33.8836V33.9525C26.8663 33.9525 26.8663 34.0213 26.8663 34.0558C26.8663 34.0902 26.8319 34.1247 26.8319 34.1591C26.8319 34.1936 26.7975 34.228 26.7975 34.2625C26.7975 34.2969 26.7976 34.3313 26.7632 34.3658C26.7632 34.3658 26.7632 34.4347 26.7632 34.4691C26.7632 34.5036 26.7632 34.5036 26.7288 34.538C26.6945 34.5725 26.6945 34.5725 26.6945 34.5725C26.6945 34.5725 26.6601 34.6069 26.6258 34.6069C26.5914 34.6069 26.5571 34.6413 26.5571 34.6413C26.5571 34.6758 26.454 34.7102 26.454 34.7447C26.454 34.7791 26.4196 34.8136 26.4196 34.8825C26.4196 34.9169 26.4196 34.9513 26.4196 34.9858C26.3853 35.0202 26.3509 35.0547 26.3166 35.0202C25.8012 35.2958 25.8012 35.2958 25.8012 35.2958H25.7669C25.7669 35.2958 25.7325 35.3302 25.7325 35.3647C25.7325 35.3991 25.7325 35.468 25.7325 35.5713C25.7325 35.6402 25.6982 35.778 25.6295 35.8469V35.9847V36.0191H25.6638C25.6638 36.0191 25.8012 36.088 25.8356 36.1569C25.9043 36.2258 26.0074 36.3636 26.0074 36.4325C26.0074 36.4669 26.0761 36.6047 26.1104 36.6047C26.1448 36.6047 26.2822 36.7425 26.3509 36.7769C26.3853 36.8113 26.5571 36.9491 26.5571 36.9491C26.5914 36.9836 26.6945 37.0869 26.6945 37.0869C26.7288 37.1213 26.8319 37.1558 26.8663 37.1902C26.8663 37.1902 26.9006 37.2247 26.935 37.2247C26.9693 37.2247 27.0724 37.2591 27.1068 37.2591C27.1411 37.2591 27.1755 37.2591 27.2098 37.2591L27.3129 37.2936L27.416 37.328L27.519 37.3969L27.6221 37.4313C27.6221 37.4313 27.7252 37.4313 27.7595 37.4658C27.7939 37.4658 27.8626 37.5002 27.8626 37.5002C27.8969 37.5002 27.9656 37.5347 27.9656 37.5691C28 37.6036 28.0344 37.6036 28.0344 37.6036C28.0344 37.6036 28.0687 37.5691 28.1031 37.5691C28.1374 37.5691 28.1718 37.6036 28.2061 37.6036C28.2405 37.6036 28.3092 37.6725 28.3092 37.7069C28.3092 37.7069 28.3779 37.7758 28.4123 37.7758C28.4123 37.8102 28.4466 37.8102 28.481 37.8447C28.481 37.8447 28.5153 37.8791 28.5497 37.9136C28.5497 37.9136 28.6184 37.9825 28.6184 38.0169C28.6184 38.0513 28.6871 38.1202 28.6871 38.1547C28.6871 38.1891 28.6871 38.258 28.6871 38.2925C28.6871 38.3269 28.6871 38.3613 28.6871 38.3958C28.6871 38.4302 28.7215 38.4647 28.7558 38.4991C28.7902 38.5336 28.8589 38.568 28.8933 38.6025C28.8933 38.6369 28.9276 38.6713 28.9276 38.7058C28.9276 38.7402 28.9963 38.8436 29.0307 38.9125C29.065 38.9813 29.0994 39.0158 29.1337 39.0502C29.1681 39.1191 29.2025 39.188 29.2368 39.2569C29.2368 39.2913 29.2712 39.3602 29.3055 39.3947C29.3399 39.4291 29.3742 39.4636 29.3742 39.498C29.3742 39.5325 29.4086 39.6013 29.4086 39.6013C29.4429 39.6358 29.4429 39.7047 29.4429 39.7047C29.4429 39.7391 29.4773 39.7736 29.5117 39.808C29.546 39.808 29.6147 39.8769 29.6491 39.8769C29.6834 39.8769 29.7178 39.9458 29.7522 39.9802C29.7865 40.0147 29.8896 40.1869 29.8896 40.2213C29.9239 40.2558 30.027 40.3936 30.027 40.3936L30.0957 40.4969C30.0957 40.4969 30.1301 40.6002 30.1644 40.6002C30.1988 40.6347 30.2331 40.6691 30.2331 40.7036C30.2675 40.738 30.3018 40.8413 30.3362 40.9102C30.3706 40.9791 30.4049 41.0825 30.4393 41.1169C30.4393 41.1513 30.4736 41.2202 30.4736 41.2202C30.4736 41.2202 30.508 41.2547 30.5423 41.2891C30.5767 41.3236 30.611 41.3925 30.6798 41.4613C30.7485 41.5302 30.7828 41.5991 30.8172 41.5991C30.8172 41.6336 30.8859 41.668 30.8859 41.7369C30.9202 41.7713 30.9546 41.9091 30.989 41.9436C30.989 41.978 31.0233 42.0469 31.0577 42.0813C31.092 42.1158 31.092 42.2191 31.1264 42.2536C31.1607 42.288 31.2295 42.3913 31.2638 42.4258C31.2982 42.4602 31.3325 42.5636 31.3669 42.598C31.4012 42.6325 31.4012 42.7013 31.4356 42.7358C31.4699 42.7702 31.5043 42.8047 31.5043 42.8391C31.5043 42.8736 31.5387 42.908 31.5387 42.9425C31.5387 42.9425 31.573 42.9769 31.6761 43.1147C31.7791 43.218 31.8822 43.4247 31.9166 43.4591C31.9166 43.4936 31.9853 43.5969 32.0196 43.6658C32.0196 43.7347 32.0883 43.9413 32.1227 43.9413C32.1227 43.9758 32.1914 44.0791 32.1914 44.1136C32.1914 44.148 32.2258 44.2513 32.2601 44.2858C32.2601 44.2858 32.3288 44.458 32.3632 44.4925C32.3632 44.5269 32.3975 44.5958 32.4319 44.6302C32.4663 44.6647 32.4663 44.7336 32.5006 44.768C32.535 44.8025 32.535 44.8369 32.535 44.8713C32.535 44.9058 32.5693 44.9747 32.5693 44.9747C32.5693 45.0091 32.6037 45.1125 32.6037 45.1125L32.638 45.2158C32.638 45.2158 32.7411 45.3536 32.7755 45.3536C32.8098 45.388 32.8442 45.4569 32.8442 45.4569L32.8785 45.5258L32.9472 45.5947C32.9472 45.5947 32.9816 45.698 33.016 45.7325C33.016 45.7669 33.0503 45.8702 33.0503 45.9047C33.0503 45.9391 33.0503 46.008 33.0847 46.008C33.0847 46.0425 33.119 46.1113 33.119 46.1458C33.119 46.1802 33.1534 46.2491 33.1534 46.2491C33.1534 46.2491 33.1877 46.318 33.1877 46.3525C33.2221 46.3525 33.2221 46.4213 33.2221 46.4213L33.2564 46.4558C33.2564 46.4558 33.2908 46.4558 33.3252 46.4558C33.3595 46.4558 33.3939 46.4558 33.4282 46.4558C33.4626 46.4558 33.4969 46.4902 33.4969 46.4902C33.4969 46.4902 33.6 46.5247 33.6344 46.5247C33.7031 46.5247 33.7374 46.4902 33.7718 46.4902C33.8061 46.4902 33.8748 46.5247 33.8748 46.5247L33.9092 46.5591C33.9092 46.5591 33.9436 46.5936 33.9779 46.5936C34.0123 46.5936 34.2528 46.5591 34.2871 46.5591C34.3215 46.5591 34.3558 46.5591 34.3902 46.5591C34.4245 46.5591 34.4589 46.5936 34.4933 46.5936C34.5276 46.628 34.562 46.6969 34.562 46.6969C34.562 46.7313 34.5963 46.7658 34.5963 46.8002C34.5963 46.8347 34.6307 46.9036 34.6307 46.9036C34.6307 46.938 34.665 46.9725 34.665 46.9725C34.665 47.0069 34.6994 47.0758 34.6994 47.0758L34.7337 47.1102C34.7337 47.1102 35.4896 47.1447 37.0356 47.1447V44.148L35.5239 44.0791ZM22.4344 29.8191C22.4344 29.8536 22.4 29.888 22.3656 29.888L21.1975 30.0258H21.1632C21.1288 30.0258 21.0945 29.9913 21.0945 29.9569V24.5836C21.0945 24.0669 21.4037 23.6536 21.7816 23.6536C21.816 23.6536 21.8847 23.6536 21.919 23.688C22.2282 23.7569 22.4 24.1358 22.4 24.618C22.4344 24.618 22.4344 29.8191 22.4344 29.8191ZM24.1865 14.8702C24.1865 14.698 24.3239 14.5258 24.4957 14.5258C24.5301 14.5258 24.5301 14.5258 24.5644 14.5258C24.7018 14.5602 24.8049 14.7325 24.8049 14.8702V16.5236C24.8049 16.5236 24.8049 16.558 24.7706 16.558H24.2209C24.2209 16.558 24.1865 16.558 24.1865 16.5236C24.1865 16.5236 24.1865 14.8702 24.1865 14.8702ZM23.465 16.6958C23.465 16.6958 23.4307 16.6958 23.465 16.6958L23.4307 14.9736C23.465 14.8013 23.5681 14.7325 23.6712 14.698C23.7055 14.698 23.7055 14.698 23.7399 14.698C23.8429 14.698 23.946 14.8358 23.946 14.9736V16.558C23.946 16.558 23.946 16.5925 23.9117 16.5925L23.465 16.6958ZM25.4577 29.7502C25.4577 29.7847 25.4233 29.8191 25.389 29.8191H23.5681H23.5337C23.4994 29.8191 23.465 29.7847 23.465 29.7502V24.2047C23.465 23.688 23.8773 23.1369 24.427 23.1369C24.4957 23.1369 24.5644 23.1369 24.6331 23.1713C25.0798 23.2747 25.4233 23.7569 25.4233 24.2047L25.4577 29.7502ZM25.492 16.6958L25.0454 16.6269C25.0454 16.6269 25.011 16.6269 25.011 16.5925V14.9736C25.011 14.8358 25.1485 14.6636 25.2515 14.698C25.3546 14.698 25.4577 14.8358 25.492 14.9736V16.6958ZM27.8626 29.9569C27.8626 29.9913 27.8282 30.0258 27.7939 30.0258L26.6258 29.888C26.5914 29.888 26.5571 29.8536 26.5571 29.8191V24.618C26.5571 24.1013 26.7975 23.688 27.1755 23.688C27.2098 23.688 27.2785 23.688 27.3129 23.7225C27.6221 23.7913 27.8969 24.1702 27.8969 24.6525C27.8626 24.5836 27.8626 29.9569 27.8626 29.9569Z" fill="white"/>
<path d="M18.552 52.8969C18.552 52.8625 18.5177 52.828 18.4146 52.828C18.1398 52.828 17.968 52.7247 17.8993 52.5525L17.8649 52.3803V52.2425V49.5903C17.8649 49.5214 17.8649 49.4525 17.8649 49.418L17.8993 49.1425C17.8993 49.0736 17.8993 49.0391 17.8993 49.0391C17.8993 49.0047 17.8993 48.9703 17.8993 48.9703C17.8993 48.9014 17.7619 48.9014 17.6931 48.9014C17.6588 48.9014 17.6244 48.9358 17.6244 48.9358L17.487 49.0736C17.3496 49.1769 17.0404 49.2803 16.7312 49.3491C16.5594 49.3836 16.4563 49.418 16.422 49.4525C16.3533 49.4869 16.3533 49.5214 16.3533 49.5558V49.5903C16.3876 49.6247 16.3876 49.6247 16.422 49.6247C16.4563 49.6247 16.5251 49.6247 16.5938 49.5903L16.6625 49.5558C16.6968 49.5558 16.7312 49.5214 16.7655 49.5214C16.903 49.5558 16.9717 49.6592 16.9717 49.8314V52.1736V52.2769C16.9717 52.4491 16.9373 52.5869 16.8686 52.6558C16.7999 52.7247 16.6625 52.7591 16.4563 52.7936C16.422 52.7936 16.3876 52.828 16.3876 52.8625C16.3876 52.9314 16.422 52.9314 16.4563 52.9314C16.4907 52.9314 16.5251 52.9314 16.5938 52.9314C16.7312 52.9314 17.0404 52.8969 17.2465 52.8969C17.3839 52.8969 17.5214 52.8969 17.5901 52.8969C17.8306 52.8969 18.1741 52.9314 18.2428 52.9314C18.449 53.0003 18.552 52.9658 18.552 52.8969Z" fill="white"/>
<path d="M25.87 51.4847H25.7669C25.6982 51.4847 25.6295 51.4847 25.6295 51.4503C25.6295 51.4158 25.6295 51.4158 25.6638 51.3814C25.6982 51.3469 25.6982 51.3125 25.7326 51.278C25.9043 51.0025 26.0761 50.7614 26.2135 50.5547L26.5571 50.1414V51.3125V51.3814C26.5571 51.4847 26.5227 51.5191 26.454 51.5191L25.87 51.4847ZM27.9313 51.2091C27.897 51.2091 27.897 51.2436 27.8626 51.278C27.8283 51.4158 27.7252 51.4847 27.5534 51.4847C27.4503 51.4847 27.416 51.4847 27.3816 51.4503V51.3814V49.5214V49.2458V48.9703C27.3816 48.9014 27.3816 48.9014 27.3473 48.9014C27.2786 48.9014 27.1068 49.0736 26.7976 49.4525C26.4884 49.7969 26.1105 50.2447 25.6982 50.7614C25.1485 51.4503 24.8737 51.8291 24.8737 51.9325C24.8737 52.0014 24.8737 52.0358 24.908 52.0358C24.9424 52.0358 25.0111 52.0703 25.0798 52.0703H26.2822C26.3853 52.0703 26.4884 52.1047 26.4884 52.1391L26.5227 52.208V52.3114V53.0003C26.5227 53.1036 26.5227 53.2414 26.4884 53.3103C26.4884 53.3447 26.4884 53.3791 26.4884 53.4136C26.4884 53.4825 26.5227 53.4825 26.5571 53.4825C26.5914 53.4825 26.5914 53.4825 26.6258 53.4825C26.6602 53.4825 26.7289 53.448 26.7976 53.448L27.2099 53.3791C27.3129 53.3791 27.3473 53.3447 27.3473 53.2758V52.1736C27.3473 52.0703 27.3473 52.0358 27.3816 52.0014C27.3816 51.9669 27.4503 51.9669 27.4847 51.9669H27.5878C27.7252 51.9669 27.7939 51.9325 27.8626 51.898C27.897 51.8636 27.9313 51.7603 27.9313 51.588C27.9313 51.4503 27.9657 51.3469 27.9657 51.3125C27.9657 51.278 27.9657 51.278 27.9657 51.2436C28.0344 51.2091 28 51.2091 27.9313 51.2091Z" fill="white"/>
<path d="M32.1227 50.7959C31.9165 50.6237 31.6761 50.5203 31.3669 50.5203C31.3325 50.5203 31.2638 50.5203 31.2294 50.5203H31.1951C31.092 50.5203 30.8515 50.5203 30.6797 50.5548C30.6454 50.5548 30.6454 50.5203 30.6454 50.4859C30.6454 50.4514 30.6454 50.3826 30.6454 50.3481C30.6454 50.2448 30.6797 50.1759 30.6797 50.0726C30.7141 49.8659 30.7828 49.797 30.9202 49.797H32.054C32.1227 49.797 32.1914 49.797 32.1914 49.7626C32.2258 49.7281 32.2258 49.6592 32.2945 49.5214L32.3632 49.3492L32.4319 49.1081C32.4319 49.0737 32.4662 49.0392 32.4662 49.0048C32.4662 48.9703 32.4319 48.9703 32.3975 48.9703C32.3632 48.9703 32.3632 48.9703 32.3288 49.0048L32.1914 49.1081C32.1227 49.177 32.054 49.2114 31.9853 49.2114H30.5423C30.4392 49.2114 30.4049 49.2114 30.3705 49.2459C30.3362 49.2803 30.3362 49.3837 30.3018 49.5903L30.2331 50.0037C30.1988 50.1414 30.1988 50.3137 30.1644 50.417C30.13 50.6581 30.0957 50.8303 30.0957 50.8648C30.0613 50.9337 30.0613 51.0026 30.0613 51.0026C30.0613 51.1059 30.0957 51.1403 30.1644 51.1403C30.1644 51.1403 30.1644 51.1403 30.1988 51.1403C30.2331 51.1403 30.3018 51.1403 30.3705 51.1403C30.3705 51.1403 30.3705 51.1403 30.4049 51.1403C30.5423 51.1059 30.6797 51.1059 30.7484 51.1059C30.9202 51.1059 31.092 51.1403 31.2294 51.2092C31.2294 51.2092 31.2638 51.2092 31.2638 51.2437C31.2981 51.2781 31.3325 51.3126 31.4012 51.347C31.573 51.4848 31.6417 51.6914 31.6417 51.8981C31.6417 52.1737 31.5386 52.4148 31.3325 52.587C31.1264 52.7592 30.8859 52.8626 30.5767 52.8626C30.4049 52.8626 30.1644 52.7937 29.8552 52.6903C29.8208 52.6903 29.8208 52.6903 29.7865 52.6903C29.7178 52.6903 29.7178 52.7248 29.7178 52.7592C29.7178 52.8281 29.8208 52.897 30.0613 52.9659C30.2675 53.0348 30.4736 53.0692 30.6797 53.0692C31.1264 53.0692 31.7448 52.9314 32.0196 52.6559C32.3288 52.3803 32.4662 52.0359 32.4662 51.6226C32.4662 51.2437 32.3632 51.0026 32.1227 50.7959Z" fill="white"/>
<path d="M21.0944 51.2437C21.1287 51.2092 21.1631 51.1748 21.2318 51.1403C21.4036 51.2092 21.5067 51.2781 21.5754 51.2781L21.8846 51.3814C22.2625 51.5192 22.4686 51.7948 22.4686 52.1392C22.4686 52.3459 22.3999 52.4837 22.2625 52.6214C22.1251 52.7248 21.9533 52.7937 21.7471 52.7937C21.541 52.7937 21.3692 52.7248 21.2318 52.6214C21.1975 52.587 21.1631 52.587 21.1631 52.5526C20.9913 52.3459 20.8882 52.0703 20.8882 51.7603C20.9226 51.5537 20.9913 51.3814 21.0944 51.2437ZM21.3005 49.3148C21.3692 49.2803 21.4036 49.2459 21.4723 49.2114C21.541 49.177 21.6097 49.177 21.6784 49.177C21.7815 49.177 21.8502 49.2114 21.9189 49.2114C21.9876 49.2459 22.0563 49.3148 22.1251 49.3492C22.2625 49.487 22.3656 49.6937 22.3656 49.9003C22.3656 50.0726 22.3312 50.2103 22.2281 50.3481C22.1594 50.4514 22.0563 50.4859 21.9876 50.5203C21.8159 50.4859 21.6097 50.417 21.4379 50.2792C21.2318 50.1414 21.0944 49.9692 21.0944 49.7626C21.0944 49.5903 21.1631 49.4181 21.3005 49.3148ZM22.503 50.7614C22.3999 50.727 22.3312 50.6926 22.3312 50.6581C22.3312 50.6237 22.3999 50.6237 22.503 50.5892C22.6748 50.5203 22.8122 50.4514 22.9152 50.3137C23.0183 50.1759 23.0527 50.0381 23.0527 49.8659C23.0527 49.5903 22.9496 49.3837 22.7435 49.2114C22.5373 49.0392 22.1594 48.9703 21.8502 48.9703C21.4723 48.9703 21.06 49.0737 20.8195 49.2803C20.579 49.487 20.476 49.7626 20.476 50.0726C20.476 50.417 20.6134 50.6926 20.9226 50.8992C20.957 50.9337 20.9913 50.9681 20.9913 50.9681C20.9913 50.9681 20.957 51.0026 20.9226 51.0026C20.5103 51.2092 20.3042 51.5192 20.3042 51.8981C20.3042 52.2426 20.4416 52.5181 20.6821 52.7248C20.9226 52.9314 21.3692 53.0348 21.7815 53.0348C22.1938 53.0348 22.6404 52.9314 22.9152 52.6903C23.1557 52.4492 23.2932 52.1737 23.2932 51.7948C23.2244 51.3126 22.984 50.9681 22.503 50.7614Z" fill="white"/>
</svg>
