<svg width="224" height="63" viewBox="0 0 224 63" fill="none" xmlns="http://www.w3.org/2000/svg">
<g clip-path="url(#clip0)">
<path d="M134.949 31.9772C134.949 36.2114 131.979 39.096 128.127 39.096C124.275 39.096 121.537 36.1645 121.537 32.3027C121.537 28.8596 123.95 25.2303 128.498 25.2303C132.025 25.2303 134.949 27.9756 134.949 31.9772ZM112.069 38.8169H106.639V38.3517C108.356 38.212 108.496 38.0723 108.496 35.8391V28.4877C108.496 26.2541 108.31 26.1143 106.686 26.0215V25.5563H111.93C113.229 25.5563 114.39 25.7424 115.132 26.2541C115.968 26.7657 116.478 27.6966 116.478 28.8596C116.478 30.5347 115.457 31.7446 113.786 32.4424C114.158 33.0474 114.993 34.443 115.596 35.3739C116.339 36.444 116.757 37.0021 117.313 37.607C117.731 38.1191 118.102 38.4446 118.845 38.6308L118.798 39.0031H118.52C116.2 38.9567 115.457 38.212 114.714 37.0954C114.065 36.1645 113.229 34.676 112.673 33.6987C112.348 33.1871 112.023 32.9541 111.373 32.9541H110.259V35.8391C110.259 38.0723 110.445 38.212 112.069 38.3517V38.8169ZM143.953 38.9567H143.396L139.868 28.022C139.312 26.3469 139.033 26.2076 137.873 26.0679V25.6027H142.838V25.975L142.189 26.0679C141.261 26.2076 141.168 26.3938 141.446 27.2778L144.185 35.9788H144.231L147.479 25.7424H147.99L151.656 35.9788H151.703C152.538 33.4197 153.698 29.0922 154.07 27.6501C154.348 26.4867 154.255 26.2076 153.327 26.1143L152.724 26.0215V25.5563H157.04V26.0215C155.694 26.2076 155.555 26.2541 154.905 28.1153C154.719 28.627 153.234 33.3264 151.517 38.9098H150.96L147.294 28.9529L147.247 28.9993L143.953 38.9567ZM164.651 38.7705H159.778V38.3053C160.892 38.2584 161.449 37.9794 161.541 37.2347C161.634 36.5833 161.727 35.5132 161.727 33.3728V28.9529C161.727 27.464 161.727 27.1381 161.356 26.6728C160.985 26.1612 160.428 26.0215 159.546 25.975V25.5098H162.516L171.102 35.7926H171.148V30.9535C171.148 28.8132 171.055 27.6966 170.963 27.0916C170.87 26.3938 170.313 26.1143 168.967 26.0215V25.5563H173.84V26.0215C172.726 26.0679 172.169 26.3469 172.077 27.0916C171.983 27.743 171.891 28.8132 171.891 30.9535V38.9098H171.381L162.516 28.1618H162.47V33.3728C162.47 35.5132 162.563 36.6302 162.656 37.2347C162.748 37.933 163.305 38.212 164.651 38.3053V38.7705ZM97.404 38.8169H92.7167V38.3517C94.4338 38.212 94.5732 38.0723 94.5732 35.8391V28.4877C94.5732 26.2541 94.4338 26.1143 92.8093 26.0215V25.5563H98.2857V25.5098C99.7708 25.5098 100.606 25.7424 101.256 26.2076C101.952 26.7193 102.323 27.4171 102.323 28.4408C102.323 30.2557 100.653 31.0932 99.6782 31.3723V31.4187C101.534 31.6982 103.205 32.7683 103.205 34.8618C103.205 36.3043 102.509 37.328 101.302 38.0258C100.281 38.5843 98.9817 38.8169 97.404 38.8169ZM127.941 25.8817C125.528 25.8817 123.486 27.8827 123.486 31.6982C123.486 35.6529 125.528 38.3982 128.498 38.3982C130.958 38.3982 132.953 36.4904 132.953 32.7215C133 28.3015 130.865 25.8817 127.941 25.8817ZM97.4966 31.8839H96.2903V36.3507C96.2903 37.7003 96.5686 38.1656 98.0537 38.1656C99.7708 38.1656 101.21 37.328 101.21 35.1412C101.21 32.9076 99.5851 31.8839 97.4966 31.8839ZM111.495 26.1148C110.845 26.1174 110.578 26.1625 110.399 26.2076C110.259 26.2541 110.213 26.3469 110.213 26.7657V32.3495H111.42C112.255 32.3495 112.905 32.2562 113.461 31.791C114.344 31.0932 114.622 30.1159 114.622 29.0922C114.622 26.9519 113.09 26.1143 111.559 26.1143L111.495 26.1148ZM96.2903 31.2794H97.5897C99.5388 31.2794 100.514 30.3485 100.514 28.6734C100.514 27.464 100.003 26.0679 97.5897 26.0679C96.94 26.0679 96.6149 26.1143 96.476 26.2076C96.3366 26.2541 96.2903 26.3469 96.2903 26.7193V31.2794Z" fill="#111111"/>
<path d="M65.335 61.0578L67.6092 61.6163L69.8367 61.0578V43.5165H84.1774V39.4684H69.8367V26.347H65.335V39.4684H50.9948V43.5165H65.335V61.0578Z" fill="#111111"/>
<path d="M69.9759 19.4608C72.4821 19.6469 72.4821 21.2287 73.0855 21.9734C73.3175 22.2525 71.0896 22.9038 68.7691 22.2525C68.0268 21.927 67.4234 20.1586 67.1914 19.926C67.0988 19.8331 68.5371 19.3215 69.9759 19.4608ZM80.0003 22.1596C82.3208 22.811 83.8059 22.206 84.0379 21.7408C84.2699 21.2287 83.7132 19.5541 81.2071 19.3679C79.7683 19.2282 78.3295 19.7402 78.4225 19.8331C78.6082 20.0657 79.2112 21.8337 80.0003 22.1596V22.1596ZM58.7448 19.3215C61.2047 19.5541 61.251 21.0894 61.8544 21.8337C62.0864 22.1132 59.8585 22.7645 57.5384 22.1132C56.7957 21.7873 56.1923 20.0193 55.9603 19.7867C55.8676 19.7398 57.306 19.1817 58.7448 19.3215Z" fill="#111111"/>
<path d="M85.6625 14.9011C85.4768 14.7614 83.2956 14.4824 82.9706 14.4824C82.6459 14.4824 80.7894 14.4824 80.0467 14.6221C78.933 14.8078 76.9838 14.8078 75.545 14.6221C75.0347 14.5752 74.4313 14.6685 73.9673 14.8547C74.0599 14.7614 74.153 14.6685 74.2919 14.5752C74.7096 14.11 75.2204 13.2725 76.0558 12.8537C76.2878 12.7608 76.4735 12.6211 76.6588 12.5282C77.3552 12.9001 78.5153 13.1332 79.9077 12.4813C81.9958 13.5515 83.2489 12.8073 83.7133 12.4349C84.27 11.9697 84.5487 11.3183 84.5487 10.6205C84.5487 10.3879 84.502 10.1553 84.4557 9.92225C84.131 8.99183 83.342 8.43375 82.1815 8.29401C82.1352 8.0614 81.9962 7.8288 81.9032 7.59619C82.0425 7.41002 82.1815 7.27028 82.2282 7.17741C82.3209 7.03768 82.6922 6.47917 81.7638 6.94481C81.7175 6.99124 81.6248 7.03768 81.5318 7.08411C81.3928 6.94481 81.2535 6.85151 81.1141 6.75864C80.2324 6.24656 79.0723 6.15369 77.9119 6.47917C77.7262 5.82778 77.4479 5.31614 76.9375 4.99023C76.4268 4.66476 75.7307 4.57145 74.9417 4.71119C74.9884 4.61832 75.0347 4.47858 75.081 4.43215C75.4061 3.68746 75.2204 3.50129 74.8953 3.8272C74.4776 4.19954 74.2456 4.47858 74.0136 4.66476C73.2709 3.45486 72.2965 2.66374 71.136 2.3847C70.1154 2.10566 69.048 2.2454 68.0732 2.71061C68.0269 2.19853 67.9338 1.82662 67.8875 1.59358C67.7018 0.989066 67.4698 1.45428 67.4698 1.64045C67.4235 1.87305 67.3772 2.2454 67.3309 2.61731C66.3561 2.10566 65.2887 1.96592 64.2676 2.2454C63.1539 2.57087 62.3185 3.40842 61.8081 4.57145C61.3904 4.43215 61.0191 4.33885 60.694 4.29241C60.5087 4.01337 60.1837 3.68747 59.766 3.31556C59.4876 3.08252 59.2556 3.17582 59.3946 3.68746C59.4413 3.87363 59.534 4.05981 59.5803 4.19954C58.7912 4.24598 58.1882 4.52502 57.8168 4.80449C57.0278 5.40901 56.7494 6.24656 56.6564 6.80507C56.6101 6.80507 56.5637 6.85151 56.5637 6.85151C55.914 6.99124 55.0323 7.22385 54.5216 8.10784C54.4289 8.0614 54.3359 8.01497 54.3359 7.9681C52.7118 6.89794 53.4542 8.29401 54.1039 8.89896C51.9227 9.22443 51.3193 10.2482 51.1804 10.8531C51.1337 10.9928 51.1337 11.1786 51.1337 11.3183C51.1337 12.0161 51.505 12.7144 52.1084 13.1332C52.8508 13.6448 53.6862 13.5984 54.4752 13.0863C55.4963 13.4122 56.9351 13.3658 57.9558 12.6211C58.5592 13.2725 59.0232 13.7377 59.3019 13.9703C59.9517 14.6221 60.926 15.0873 61.3904 15.2735C60.926 15.0873 60.0906 14.9011 59.3019 14.994C57.5848 15.2266 56.4244 14.9011 55.682 14.8547C54.4752 14.715 53.2222 14.9476 52.5724 14.9476C51.9227 14.9476 50.9947 15.2735 50.5307 15.3199C50.0199 15.4128 50.0662 15.7387 50.7627 15.9249C51.4587 16.1106 52.7118 16.2039 53.0365 16.3901C54.1506 16.8553 56.0067 17.2741 57.3061 17.1812C58.2345 17.0879 59.1626 17.5531 59.3946 17.6464C59.8586 17.7857 60.9727 18.1116 61.4368 18.1116C61.4368 18.0652 61.4368 18.763 61.4831 19.0885C61.2974 19.1353 61.1584 19.2282 60.9727 19.2746C60.462 18.9492 58.1882 18.0183 55.4033 19.1818C54.8003 18.9956 53.5935 18.2978 51.8764 18.8559C49.7879 19.5541 50.113 21.4618 50.809 22.3458C51.737 23.5553 53.4542 23.2762 53.9649 22.7177C55.0786 23.4624 56.2387 23.2298 57.0741 22.7177C57.6312 23.0436 60.323 23.5553 62.3648 22.7177C62.6431 22.9039 63.7573 23.5088 65.1956 22.7646C66.031 23.2762 67.4235 23.2762 68.1195 22.6713C68.3515 22.9039 69.1406 23.1834 70.7651 23.1834C72.7142 23.1834 73.1782 22.8575 73.4565 22.6249C73.8742 22.811 74.988 23.416 76.3341 22.811C77.0765 23.2762 78.5616 23.2298 79.3507 22.7177C80.7894 23.3695 83.4346 23.0901 84.0843 22.6249C85.2911 21.7873 84.6877 20.1122 83.3883 19.3215C80.8358 18.0183 78.4226 19.042 77.8192 19.3679C77.0765 18.8559 75.4987 18.5304 73.8279 18.8559C73.8742 18.6701 73.8279 18.4371 73.8279 18.2045V18.1116C74.153 18.0183 74.617 17.6464 75.545 17.5995C76.8445 17.5067 79.861 17.5531 81.3461 16.7624C82.2278 16.2968 85.198 15.7387 85.6157 15.5061C85.9871 15.2266 85.8945 15.0404 85.6625 14.9011V14.9011ZM74.6633 13.1332C73.5959 14.4359 73.0389 14.8547 72.8536 14.8547C72.6212 14.4359 72.2039 13.9238 71.8788 13.6448C72.2502 13.226 73.9673 12.4349 74.756 11.83C74.8953 11.7371 75.2204 11.5509 75.3594 11.4581C75.545 11.6907 75.8234 11.9233 76.1021 12.1094C75.4061 12.5282 75.0347 12.7608 74.6633 13.1332V13.1332ZM58.9769 10.341C59.9053 10.4808 60.9727 10.2482 61.7151 9.55034C62.6899 11.0857 62.6899 12.4349 63.6179 13.4122C62.4579 12.2956 61.4368 12.2956 59.766 11.4112C59.4876 11.2719 59.0699 10.9924 58.9306 10.8995C58.9306 10.7598 58.9769 10.6205 58.9769 10.4343C58.9769 10.4343 58.9769 10.3879 58.9769 10.341V10.341ZM66.031 12.063C66.0778 12.1094 65.567 11.3648 65.5207 11.2719C65.335 10.9924 65.103 10.7598 64.871 10.4343C64.4533 9.96912 64.1287 9.55034 63.8499 9.27087C64.4996 9.13156 65.2887 8.71279 66.0778 7.9681C66.1704 8.01497 66.2635 8.0614 66.3561 8.15427C66.3098 8.43331 66.2635 8.66635 66.2167 8.80566C66.031 9.82938 66.031 10.6205 65.9847 10.946C65.9847 11.2719 66.031 11.7835 66.031 12.063V12.063ZM64.5927 11.1321C65.0104 11.6442 65.335 12.2956 65.4281 12.4349C65.103 12.5746 64.4996 12.8537 64.1286 13.0863C63.4785 12.4349 62.9682 10.3879 62.6435 9.87581C62.5042 9.68964 62.4111 9.55034 62.3648 9.4106C62.5968 9.50391 62.9219 9.45704 63.1539 9.5039C63.2465 9.55034 63.8036 10.062 64.5927 11.1321ZM67.5629 12.6211C70.7188 12.6211 73.2245 15.1337 73.2245 18.2978C73.2245 18.5304 73.2245 18.8094 73.1782 19.1353C72.8536 19.2282 72.4822 19.3679 72.1571 19.5072C70.5331 18.5304 68.3052 18.6233 66.7275 19.5072C65.7527 18.763 63.6179 18.6697 61.9934 19.042C61.9471 18.7166 61.9008 18.4371 61.9008 18.2978C61.9471 15.1337 64.4533 12.6211 67.5629 12.6211V12.6211ZM66.7738 10.4343C66.8201 9.36417 67.0521 8.66635 67.0521 8.52661C67.2841 8.61948 67.5629 8.71279 67.7949 8.80566C67.9806 9.22443 68.3515 10.9924 68.2126 12.0626C67.7486 12.0161 67.1915 12.0161 66.8201 12.0626C66.7275 11.8768 66.7275 10.9924 66.7738 10.4343ZM71.7862 10.5741C71.4611 11.2719 71.6468 12.1559 70.8114 12.947C70.7183 12.8537 69.8834 12.4813 69.5583 12.342C69.6977 11.2254 70.7183 9.87582 71.3685 9.31774C71.5537 9.55034 71.8788 9.78295 72.1108 9.92225C72.0645 10.0156 71.9251 10.2482 71.7862 10.5741V10.5741ZM72.6679 10.341C72.7142 10.2946 72.7142 10.2482 72.7605 10.1553C73.3639 10.341 74.0599 10.3879 74.7096 10.341C74.756 10.5741 74.8953 10.8067 74.9884 11.0393C74.6633 11.1786 73.6886 11.8768 72.2502 12.6675C71.8788 12.8537 71.6468 13.0863 71.5074 13.226C71.6468 12.9934 71.8788 12.7144 71.9714 12.4349C72.2034 11.7371 72.1571 11.2254 72.6679 10.341ZM69.1869 11.1786C69.048 11.5509 68.9549 11.7835 68.9086 12.0161C69.048 11.1786 68.816 9.92225 68.5372 8.85209C69.28 8.85209 70.0223 8.66635 70.7651 8.24757C70.8114 8.43375 70.904 8.57305 70.9971 8.71279C70.5794 9.08513 69.5583 10.1553 69.1869 11.1786V11.1786ZM57.5848 12.0626C56.7494 12.7608 55.357 12.8072 54.4752 12.4813C54.3826 12.4349 54.2432 12.4349 54.1506 12.5282C53.5935 12.947 52.9438 12.9934 52.4335 12.6211C51.9227 12.2487 51.6444 11.6442 51.7838 11.0393C51.9691 10.2482 52.9438 9.68964 54.4289 9.55034C54.5683 9.55034 54.7073 9.4106 54.7536 9.27087C55.0323 7.92167 55.914 7.73549 56.7494 7.54932L57.1208 7.45646C57.3061 7.41002 57.3991 7.27028 57.3528 7.08411C57.3061 6.85151 57.5385 5.96752 58.2345 5.40901C59.0699 4.75762 60.323 4.75762 61.8545 5.36257C61.9471 5.409 62.0402 5.409 62.1328 5.36257C62.2258 5.31614 62.2722 5.2697 62.3185 5.1764C62.6899 4.05981 63.4785 3.26869 64.4533 2.98965C65.4744 2.66374 66.5881 2.89678 67.5629 3.5946C67.7018 3.68746 67.8412 3.68746 67.9806 3.5946C68.9086 2.98965 70.0223 2.80348 70.9971 3.08252C72.1108 3.36199 73.0388 4.19955 73.7353 5.50231C73.8279 5.64161 74.0136 5.73491 74.153 5.68848C75.2204 5.31614 76.0558 5.31614 76.6124 5.64161C77.1695 5.96752 77.3085 6.52603 77.4015 6.99125C77.4015 7.08411 77.4942 7.17741 77.5409 7.22385C77.6335 7.27028 77.7262 7.27028 77.8192 7.27028C78.933 6.89794 80.0467 6.94481 80.7894 7.41002C81.2998 7.7355 81.5781 8.15427 81.6712 8.71279C81.7175 8.85209 81.8105 8.99182 81.9958 8.99182C82.9706 9.03826 83.6666 9.50391 83.8986 10.1553C84.0843 10.7598 83.8986 11.5045 83.3883 11.9233C82.6455 12.5282 81.4855 12.4818 80.2324 11.83C80.1397 11.7835 80.0004 11.7835 79.9077 11.83C78.8866 12.342 77.9582 12.3885 77.0765 11.9233C76.0558 11.4112 75.4524 10.341 75.4057 9.82938C75.4057 9.73651 75.3594 9.64321 75.2667 9.59677C75.1737 9.55034 75.081 9.5039 74.9884 9.55034C74.2919 9.64321 71.9251 9.87581 71.4148 7.59619C71.3681 7.50289 71.3217 7.41002 71.2291 7.36359C71.136 7.31672 70.9971 7.41002 70.904 7.45646C69.3726 8.48018 67.8412 8.38688 66.4024 7.22385C66.2635 7.13055 66.0778 7.08411 65.9384 7.22385C64.2676 8.89896 62.9219 8.80565 62.2722 8.52661C62.1328 8.48018 61.9471 8.52661 61.8545 8.66635C61.2048 9.68964 59.8123 9.87581 58.8843 9.59677C58.7912 9.55034 58.6522 9.55034 58.5592 9.64321C58.4666 9.73651 58.4202 9.82938 58.4202 9.96912C58.4202 10.8067 58.1882 11.5509 57.5848 12.0626V12.0626ZM58.3735 12.342C58.5129 12.1559 58.6986 11.7835 58.7912 11.5045C58.8842 11.5509 58.9306 11.5974 58.9769 11.6442C59.0236 11.6442 59.534 12.0161 59.8586 12.2023C61.2974 12.9001 62.1791 13.0399 63.1539 13.831C62.7825 14.2033 62.4111 14.6685 62.2258 15.0873C60.1837 14.4824 58.6059 12.6675 58.3735 12.342V12.342ZM59.4413 16.9481C59.2556 16.8553 58.0489 16.4365 57.3528 16.4829C55.914 16.5762 54.1039 16.1575 53.2222 15.7851C52.9901 15.6923 51.041 15.5061 52.9438 15.5061C53.5935 15.5061 54.3363 15.3199 55.6357 15.5061C56.3781 15.599 57.6775 15.7387 59.6266 15.599C60.6014 15.5061 61.2974 15.8316 61.6688 16.2039C61.5761 16.4829 61.4368 17.1808 61.4368 17.4138C60.8797 17.4138 59.9517 17.1343 59.4413 16.9481V16.9481ZM54.6146 22.1596C53.7329 21.5547 53.1758 20.3917 52.5724 20.5774C52.3404 20.6707 52.2941 21.1359 52.6188 21.1359C52.8512 21.1359 53.2685 21.7873 53.5472 22.0663C53.5009 22.3923 52.6188 22.7646 51.6907 22.2061C51.273 21.9735 50.6233 21.1359 51.1804 20.1122C51.505 19.5541 52.3404 19.2746 53.4078 19.3215C55.4037 19.3679 56.0067 21.6476 56.4711 22.1132C56.4711 22.2989 55.357 22.7177 54.6146 22.1596V22.1596ZM57.5385 22.1132C56.7958 21.7873 56.1924 20.0193 55.9604 19.7867C55.8677 19.6934 57.3061 19.1818 58.7449 19.3215C61.2511 19.5541 61.2511 21.0895 61.8545 21.8337C62.0865 22.1596 59.8123 22.7646 57.5385 22.1132ZM65.6601 22.2989C65.4281 22.1596 64.7316 21.2757 64.4533 20.9498C64.2213 20.6243 63.7573 20.3448 63.5253 20.6243C63.3859 20.81 63.5253 20.9962 63.7573 21.0895C63.9893 21.2288 64.5927 21.9735 64.639 22.1596C64.5927 22.3922 63.4789 22.811 62.8288 22.0199C62.5042 21.6011 61.8545 20.3917 61.4368 19.8796C62.8756 19.3679 64.5463 19.1818 65.7527 19.7398C66.9132 20.2984 67.0989 21.5083 67.5629 22.1132C67.6555 22.532 66.3561 22.7646 65.6601 22.2989V22.2989ZM68.7692 22.2525C68.0269 21.927 67.4235 20.1586 67.1915 19.926C67.0984 19.8332 68.5372 19.3215 69.976 19.4608C72.4822 19.6934 72.4822 21.2288 73.0856 21.9735C73.3176 22.2525 71.0897 22.9039 68.7692 22.2525ZM81.2071 19.3679C83.7133 19.6005 84.27 21.2288 84.038 21.7409C83.806 22.2061 82.3209 22.811 80.0004 22.1596C79.258 21.8337 78.6546 20.0658 78.4226 19.8332C78.2832 19.7399 79.722 19.2282 81.2071 19.3679V19.3679ZM76.9838 19.7398C78.1439 20.2984 78.3759 21.5083 78.7936 22.1132C78.8866 22.532 77.4942 22.6249 76.8908 22.2989C76.6588 22.1596 75.9627 21.2757 75.6844 20.9498C75.4524 20.6243 75.0347 20.4381 74.849 20.7171C74.7096 20.9033 74.8953 21.0895 75.081 21.1824C75.3594 21.3221 75.8234 22.0199 75.8701 22.1596C75.8234 22.3922 74.849 22.7177 74.1063 21.9735C73.7353 21.6011 73.0856 20.2984 72.8068 19.7867C74.2456 19.3215 75.7771 19.1818 76.9838 19.7398V19.7398ZM83.6666 15.4128C82.9243 15.5525 82.0425 15.7851 80.9751 16.1575C79.5363 16.7155 76.7518 16.8553 75.5914 16.8553C74.4776 16.8553 74.153 17.3205 73.7353 17.2741C73.7353 16.6691 73.3639 15.8316 73.3639 15.8316C73.6886 15.6454 74.7096 15.3199 75.6381 15.3664C76.8445 15.4128 79.026 15.5061 80.186 15.3199C80.7431 15.2266 82.7849 15.2266 83.0636 15.2266C83.2956 15.2266 83.6666 15.2735 83.7597 15.2735C84.27 15.3199 83.8986 15.3663 83.6666 15.4128Z" fill="#111111"/>
<path d="M54.5217 10.574C53.9187 10.574 53.4079 10.574 52.9902 11.0392C52.5262 11.5509 52.6656 11.7835 52.5725 11.8768C52.4336 12.0161 52.1548 11.7835 52.1548 11.5509C52.2012 10.3879 53.5936 9.92221 54.429 10.0155C54.7537 10.0619 54.8004 10.574 54.5217 10.574" fill="#111111"/>
<path d="M57.0279 8.61944C56.1462 8.71275 55.8679 9.13152 55.7285 9.64317C55.6822 9.82934 55.1714 9.6896 55.2645 9.3177C55.4965 8.20067 56.7033 7.96806 57.121 8.06136C57.2136 8.1078 57.1673 8.61944 57.0279 8.61944Z" fill="#111111"/>
<path d="M60.8798 6.24655C59.3021 5.64161 58.513 6.80507 58.281 7.78192C58.2347 7.92166 57.7239 7.87523 57.817 7.45645C58.0027 6.47916 58.9307 5.08353 61.1118 5.64161C61.2975 5.68847 61.1586 6.33986 60.8798 6.24655" fill="#111111"/>
<path d="M66.7276 4.66479C65.2888 3.6875 64.1288 4.47861 63.5254 5.17643C63.2466 5.50234 62.922 4.94382 63.0614 4.75765C63.5717 3.9201 65.3815 2.66377 66.9596 4.05984C67.1453 4.24601 66.9596 4.80409 66.7276 4.66479Z" fill="#111111"/>
<path d="M72.7144 6.01398C72.575 6.10728 72.5287 5.92111 72.436 5.78137C71.1362 3.73392 68.8161 4.29244 68.166 5.22286C68.027 5.40903 67.702 4.89739 67.8877 4.61835C68.4447 3.68749 71.4149 2.84994 72.9464 5.4559C73.0857 5.73494 72.8537 5.92111 72.7144 6.01398Z" fill="#111111"/>
<path d="M76.3341 7.31676C75.9628 6.3399 75.2667 6.38634 74.4776 6.66538C74.1063 6.80511 74.1993 6.15373 74.3387 6.10729C75.1274 5.82782 76.4735 5.68852 76.8445 7.03772C76.8912 7.41006 76.4268 7.59623 76.3341 7.31676Z" fill="#111111"/>
<path d="M80.6038 9.36418C79.9541 8.15429 78.8867 8.15429 78.0049 8.4802C77.8192 8.57307 77.6335 8.06142 77.9586 7.87525C78.7936 7.41004 80.5574 7.45647 81.0678 9.03828C81.1608 9.31775 80.7895 9.78296 80.6038 9.36418Z" fill="#111111"/>
<path d="M83.2957 11.2719C83.249 11.458 82.7387 11.5045 82.785 11.2719C82.878 10.2946 82.3673 10.2017 81.7176 10.2017C81.4856 10.2017 81.4856 9.68963 81.6713 9.64319C82.553 9.45702 83.5741 10.1084 83.2957 11.2719Z" fill="#111111"/>
<path d="M66.3563 16.3437C66.3563 16.7156 66.0312 16.9951 65.6602 16.9482C65.2889 16.9482 65.0105 16.6227 65.0568 16.2504V16.1575C65.0105 16.0642 64.6855 15.9713 64.2678 16.2504C64.0358 16.3901 63.8038 16.2968 64.1751 15.9714C64.5928 15.599 64.9638 15.4128 65.2889 15.3664C65.8459 15.32 66.5883 15.4593 66.9597 15.599C67.0986 15.6454 66.9597 16.3901 66.9133 16.3437C66.774 16.2968 66.542 16.204 66.3099 16.2504L66.3563 16.3437Z" fill="#111111"/>
<path d="M68.2127 18.3442C68.1197 18.6696 66.9133 18.8094 66.6813 18.3442C66.5882 18.158 66.4956 17.7392 66.6346 17.8325C66.9133 17.9718 67.8413 17.879 68.027 17.8325C68.166 17.7857 68.0733 17.553 68.166 17.5995C68.3517 17.5995 68.3517 18.0183 68.2127 18.3442Z" fill="#111111"/>
<path d="M71.0435 16.4829C70.7651 16.2503 70.3474 16.1105 70.2081 16.2503V16.2967C70.2544 16.669 69.9761 16.9949 69.6047 16.9949C69.2337 17.0414 68.9087 16.7623 68.9087 16.39V16.3436C68.6766 16.2503 68.3053 16.39 68.2589 16.39C68.2126 16.39 68.0733 15.6922 68.2589 15.5989C68.816 15.3663 70.6721 15.2734 71.1828 16.2967C71.2292 16.4364 71.1828 16.5762 71.0435 16.4829" fill="#111111"/>
<path d="M70.5794 26.347H84.1774V38.7237H70.5794V26.347ZM50.9948 26.347H64.5927V38.7237H50.9948V26.347ZM64.639 60.8251C61.1585 59.8014 57.7238 58.4058 55.5427 56.3583C54.7536 55.6141 54.1039 54.8694 53.5473 53.9854H57.0278V54.4971H58.6523V53.9854H62.5505V47.3783H61.7151V46.1684C60.8797 46.3546 59.4877 45.8893 58.8843 45.8893C58.1883 45.8893 57.8632 46.1684 57.8632 46.1684C57.8632 46.1684 57.4918 45.8893 56.8421 45.8893C56.2387 45.8893 54.8467 46.3546 54.0113 46.1684V47.3783H53.1759V53.2876C51.8302 50.9611 51.2268 48.1694 51.0874 44.7728L51.0411 44.2607H64.639V60.8251ZM54.661 52.6826V47.0059C55.125 47.0992 55.9604 46.7733 56.8421 46.7269C57.3061 46.7269 57.4455 46.9595 57.4455 46.9595V52.6826C57.4455 52.6826 56.9352 52.3567 55.8678 52.6362C54.9861 52.9152 54.661 52.6826 54.661 52.6826V52.6826ZM58.2809 52.6826V46.9595C58.2809 46.9595 58.4203 46.6805 58.8843 46.7269C59.7197 46.7733 60.5551 47.0992 61.0654 47.0059V52.6826C61.0654 52.6826 60.7408 52.9152 59.9054 52.6826C58.7449 52.3567 58.2809 52.6826 58.2809 52.6826ZM69.8367 61.0577L67.5629 61.6163L65.3351 61.0113V43.5164H50.9948V39.4684H65.3351V26.347H69.8367V39.4684H84.1311V43.5164H69.8367V61.0577ZM82.1352 53.3805V47.4247H81.2998V46.2153C80.4644 46.401 79.0724 45.9358 78.469 45.9358C77.773 45.9358 77.4479 46.2153 77.4479 46.2153C77.4479 46.2153 77.1233 45.9358 76.4268 45.9358C75.8234 45.9358 74.4314 46.401 73.596 46.2153V47.4247H72.7606V54.0318H76.6588V54.5439H78.2833V54.0318H81.8106C81.2535 54.8694 80.5575 55.6605 79.7684 56.4048C77.4479 58.4986 74.06 59.8478 70.6258 60.8251V44.2607H84.2237V44.8192C83.9917 48.5417 83.3883 51.1937 82.1352 53.3805ZM80.6038 46.9595V52.6362C80.6038 52.6362 80.2787 52.8688 79.4438 52.6362C78.3296 52.3103 77.8656 52.6826 77.8656 52.6826V46.9595C77.8656 46.9595 78.005 46.6805 78.469 46.7269C79.3044 46.7269 80.1398 47.0528 80.6038 46.9595ZM76.9839 46.9595V52.6826C76.9839 52.6826 76.4736 52.3567 75.4061 52.6362C74.5707 52.8688 74.2457 52.6362 74.2457 52.6362V46.9595C74.7097 47.0528 75.5451 46.7269 76.4268 46.6805C76.8913 46.6805 76.9839 46.9595 76.9839 46.9595V46.9595ZM50.1594 25.5099V43.8419C50.1594 49.8909 51.6445 54.0783 54.893 57.0097C58.0952 59.9411 62.8756 61.4301 67.5629 62.5467C72.3892 61.3837 77.0302 59.9876 80.2324 57.0097C83.481 54.0783 84.9661 49.8909 84.9661 43.8419V25.5099H50.1594Z" fill="#111111"/>
<path d="M61.7151 29.6043V28.3944C60.8797 28.5806 59.4877 28.1154 58.8843 28.1154C58.1883 28.1154 57.8632 28.3944 57.8632 28.3944C57.8632 28.3944 57.4918 28.1154 56.8421 28.1154C56.2387 28.1154 54.8467 28.5806 54.0113 28.3944V29.6043H53.1759V36.2114H57.0741V36.7231H58.6986V36.2114H62.5968V29.6043H61.7151ZM57.3992 34.8618C57.3992 34.8618 56.8889 34.5363 55.821 34.8153C54.986 35.048 54.661 34.8153 54.661 34.8153V29.1391C55.125 29.232 55.9604 28.906 56.8421 28.8596C57.3061 28.8596 57.4455 29.0922 57.4455 29.0922L57.3992 34.8618ZM61.0191 34.8153C61.0191 34.8153 60.694 35.048 59.8586 34.8153C58.7449 34.4899 58.2809 34.8618 58.2809 34.8618V29.1391C58.2809 29.1391 58.4203 28.8596 58.8843 28.906C59.7197 28.9529 60.5551 29.2784 61.0654 29.1855L61.0191 34.8153Z" fill="#111111"/>
<path d="M81.2998 29.6043V28.3944C80.4644 28.5806 79.0724 28.1154 78.469 28.1154C77.773 28.1154 77.4479 28.3944 77.4479 28.3944C77.4479 28.3944 77.1233 28.1154 76.4268 28.1154C75.8234 28.1154 74.4314 28.5806 73.596 28.3944V29.6043H72.7606V36.2114H76.6588V36.7231H78.2833V36.2114H82.1815V29.6043H81.2998ZM76.8913 34.8618C76.8913 34.8618 76.3805 34.5363 75.3131 34.8153C74.4777 35.048 74.1531 34.8153 74.1531 34.8153V29.1391C74.6171 29.232 75.4525 28.906 76.3342 28.8596C76.7982 28.8596 76.9376 29.0922 76.9376 29.0922V34.8618H76.8913ZM80.5112 34.8153C80.5112 34.8153 80.1861 35.048 79.3507 34.8153C78.237 34.4899 77.773 34.8618 77.773 34.8618V29.1391C77.773 29.1391 77.9119 28.8596 78.3764 28.906C79.2113 28.9529 80.0467 29.2784 80.5575 29.1855V34.8153H80.5112Z" fill="#111111"/>
<path d="M70.5795 60.8251C74.0137 59.8478 77.4016 58.4986 79.7221 56.4047C80.5575 55.6605 81.2072 54.8693 81.7639 54.0318H78.237V54.5439H76.6125V54.0318H72.7143V47.4247H73.5497V46.2152C74.3851 46.4009 75.7771 45.9357 76.3805 45.9357C77.0765 45.9357 77.4016 46.2152 77.4016 46.2152C77.4016 46.2152 77.773 45.9357 78.4227 45.9357C79.0261 45.9357 80.4181 46.4009 81.2535 46.2152V47.4247H82.0889V53.3804C83.342 51.1937 83.9454 48.5417 84.1311 44.8191V44.2606H70.5331V60.8251H70.5795Z" fill="white"/>
<path d="M51.0411 44.7727C51.1804 48.1693 51.8301 50.961 53.1296 53.2875V47.3782H53.965V46.1683C54.8004 46.3545 56.1924 45.8893 56.7958 45.8893C57.4918 45.8893 57.8169 46.1683 57.8169 46.1683C57.8169 46.1683 58.1883 45.8893 58.838 45.8893C59.4414 45.8893 60.8334 46.3545 61.6688 46.1683V47.3782H62.5042V53.9854H58.606V54.497H56.9815V53.9854H53.5009C54.0576 54.8229 54.7073 55.614 55.4964 56.3583C57.6775 58.4057 61.0654 59.8014 64.5927 60.8251V44.2606H50.9948L51.0411 44.7727Z" fill="white"/>
<path d="M57.3991 52.6826V46.9595C57.3991 46.9595 57.2598 46.6805 56.7957 46.7269C55.9603 46.7733 55.125 47.0992 54.6146 47.0059V52.6826C54.6146 52.6826 54.9393 52.9152 55.7747 52.6826C56.9351 52.3567 57.3991 52.6826 57.3991 52.6826Z" fill="white"/>
<path d="M53.2223 15.7851C54.104 16.1575 55.9605 16.5762 57.3529 16.4829C58.049 16.4365 59.209 16.8553 59.4414 16.9481C59.9518 17.1343 60.8798 17.4138 61.3905 17.4138C61.4369 17.1808 61.5295 16.4829 61.6226 16.2039C61.2512 15.8316 60.5088 15.5061 59.5804 15.599C57.6313 15.7387 56.3318 15.6454 55.5891 15.5061C54.3364 15.3199 53.5473 15.5061 52.8976 15.5061C50.9948 15.5525 52.9902 15.6923 53.2223 15.7851Z" fill="white"/>
<path d="M56.8421 28.8596C56.0067 28.9061 55.1713 29.232 54.6609 29.1391V34.8154C54.6609 34.8154 54.986 35.048 55.821 34.8154C56.9351 34.4899 57.3992 34.8618 57.3992 34.8618V29.1391C57.3992 29.1391 57.2598 28.8596 56.8421 28.8596Z" fill="white"/>
<path d="M78.3296 28.8596C77.8656 28.8596 77.7262 29.0922 77.7262 29.0922V34.8154C77.7262 34.8154 78.237 34.4899 79.3044 34.7689C80.1398 35.0015 80.4644 34.7689 80.4644 34.7689V29.0922C80.0004 29.232 79.165 28.9061 78.3296 28.8596Z" fill="white"/>
<path d="M84.1774 26.3469H70.5795V38.7236H84.1774V26.3469ZM82.1352 36.2114H78.237V36.723H76.6125V36.2114H72.7143V29.6043H73.5497V28.3944C74.3851 28.5805 75.7771 28.1153 76.3805 28.1153C77.0765 28.1153 77.4016 28.3944 77.4016 28.3944C77.4016 28.3944 77.773 28.1153 78.4227 28.1153C79.0261 28.1153 80.4181 28.5805 81.2535 28.3944V29.6043H82.0889L82.1352 36.2114Z" fill="white"/>
<path d="M77.8656 46.9595V52.6826C77.8656 52.6826 78.3759 52.3567 79.4437 52.6362C80.2787 52.8688 80.6038 52.6362 80.6038 52.6362V46.9595C80.0934 47.0528 79.3044 46.7269 78.4226 46.6804C78.0049 46.6804 77.8656 46.9595 77.8656 46.9595Z" fill="white"/>
<path d="M74.2457 46.9595V52.6362C74.2457 52.6362 74.5708 52.8688 75.4062 52.6362C76.5199 52.3103 76.9839 52.6826 76.9839 52.6826V46.9595C76.9839 46.9595 76.8445 46.6805 76.3805 46.7269C75.5451 46.7269 74.756 47.0528 74.2457 46.9595V46.9595Z" fill="white"/>
<path d="M76.2879 28.8596C75.4525 28.9061 74.6171 29.232 74.1064 29.1391V34.8154C74.1064 34.8154 74.4315 35.048 75.2669 34.8154C76.3806 34.4899 76.8446 34.8618 76.8446 34.8618V29.1391C76.8913 29.1391 76.752 28.8596 76.2879 28.8596V28.8596Z" fill="white"/>
<path d="M63.2001 13.8309C62.2258 13.0398 61.2973 12.8536 59.9053 12.2022C59.5802 12.0629 59.0236 11.6906 59.0236 11.6441C58.9768 11.5973 58.9305 11.5508 58.8379 11.5044C58.7448 11.7834 58.5591 12.1558 58.4202 12.3419C58.6522 12.621 60.2299 14.4823 62.3184 15.0403C62.4578 14.6684 62.8287 14.2032 63.2001 13.8309Z" fill="white"/>
<path d="M62.4111 9.36414C62.4578 9.457 62.5505 9.59674 62.6898 9.82935C63.0145 10.3879 63.5252 12.3884 64.1749 13.0398C64.4996 12.8072 65.103 12.4813 65.4743 12.3884C65.3813 12.2487 65.0566 11.6442 64.6389 11.0857C63.8499 10.062 63.2932 9.50344 63.2465 9.41057C62.9681 9.45701 62.6435 9.457 62.4111 9.36414V9.36414Z" fill="white"/>
<path d="M61.9933 19.042C63.6178 18.6697 65.7989 18.7166 66.7274 19.5073C68.2588 18.6233 70.533 18.5768 72.1571 19.5073C72.4821 19.3215 72.8068 19.2282 73.1782 19.1354C73.2245 18.8094 73.2245 18.5304 73.2245 18.2978C73.2245 15.1338 70.7187 12.6211 67.5628 12.6211C64.4532 12.6211 61.9007 15.1802 61.9007 18.2978C61.947 18.4371 61.947 18.7166 61.9933 19.042V19.042ZM68.2588 15.599C68.8159 15.3664 70.672 15.2735 71.1827 16.2968C71.229 16.4365 71.229 16.5763 71.0433 16.4365C70.765 16.2039 70.3473 16.0642 70.2079 16.2039V16.2503C70.2543 16.6227 69.9759 16.9482 69.6045 16.9482C69.2336 16.995 68.9085 16.7156 68.9085 16.3437V16.2968C68.6765 16.2039 68.3051 16.3437 68.2588 16.3437C68.1658 16.3901 68.0268 15.6923 68.2588 15.599V15.599ZM68.0731 17.7857C68.2125 17.7393 68.1194 17.5067 68.2125 17.5531C68.3514 17.5995 68.3514 17.9719 68.2125 18.2978C68.1194 18.6233 66.9131 18.763 66.6811 18.2978C66.588 18.1116 66.4954 17.6928 66.6343 17.7857C66.9131 17.9719 67.8874 17.8326 68.0731 17.7857ZM64.1749 16.0177C64.5926 15.6454 64.9635 15.4592 65.2886 15.4128C65.8457 15.3664 66.588 15.5061 66.9594 15.6454C67.0984 15.6923 66.9594 16.4365 66.9131 16.3901C66.7737 16.3436 66.5417 16.2503 66.3097 16.2968V16.3437C66.3097 16.7156 65.9846 16.995 65.6132 16.9482C65.2423 16.9482 64.9635 16.6227 65.0103 16.2503V16.1575C64.9635 16.0642 64.6389 15.9713 64.2212 16.2503C64.0355 16.4365 63.7572 16.3436 64.1749 16.0177Z" fill="white"/>
<path d="M65.7526 19.7398C64.5458 19.1817 62.8755 19.3679 61.4367 19.8796C61.8081 20.3916 62.5041 21.6475 62.8287 22.0199C63.4784 22.811 64.5926 22.3922 64.6389 22.1596C64.5463 22.0199 63.9429 21.2288 63.7572 21.0895C63.5252 20.9497 63.4321 20.7636 63.5252 20.6242C63.7109 20.3448 64.1749 20.6242 64.4532 20.9497C64.6852 21.2756 65.428 22.1596 65.66 22.2989C66.356 22.7646 67.7017 22.532 67.5628 22.1132C67.0983 21.5082 66.9131 20.2519 65.7526 19.7398V19.7398Z" fill="white"/>
<path d="M53.4079 19.3215C52.3868 19.3215 51.5051 19.6006 51.1804 20.1122C50.6234 21.0895 51.2731 21.9735 51.6908 22.2061C52.6188 22.7646 53.4542 22.3923 53.5473 22.0664C53.3153 21.7873 52.8512 21.1359 52.6188 21.1359C52.2942 21.1359 52.2942 20.6707 52.5725 20.5774C53.1759 20.3917 53.7793 21.5083 54.6147 22.1597C55.4038 22.7177 56.4712 22.299 56.4712 22.0664C55.9604 21.6476 55.4038 19.368 53.4079 19.3215V19.3215Z" fill="white"/>
<path d="M68.2127 12.063C68.3516 10.9924 68.027 9.27086 67.795 8.80565C67.5162 8.75922 67.2379 8.66635 67.0522 8.52661C67.0059 8.66635 66.8202 9.36417 66.7739 10.4343C66.7276 10.9924 66.7739 11.8768 66.8665 12.0626C67.1916 12.0161 67.7486 12.0161 68.2127 12.063Z" fill="white"/>
<path d="M71.3686 9.31775C70.7189 9.87583 69.6978 11.2719 69.5584 12.3421C69.8835 12.4814 70.6722 12.8537 70.8115 12.947C71.6469 12.1559 71.4613 11.2255 71.7863 10.5741C71.9253 10.2946 72.0646 10.062 72.1573 9.92226C71.8789 9.73652 71.6006 9.55035 71.3686 9.31775V9.31775Z" fill="white"/>
<path d="M74.1531 22.0199C74.8954 22.7646 75.8702 22.4386 75.9165 22.206C75.8239 22.0663 75.3594 21.3685 75.1274 21.2288C74.8954 21.0894 74.756 20.9033 74.8954 20.7635C75.0811 20.4845 75.4988 20.6707 75.7308 20.9961C75.9628 21.3221 76.6588 22.206 76.9376 22.3458C77.5873 22.7177 78.9793 22.5784 78.8404 22.1596C78.469 21.5547 78.1907 20.2983 77.0302 19.7867C75.8239 19.2282 74.292 19.3679 72.9 19.8796C73.0857 20.3448 73.7817 21.6475 74.1531 22.0199V22.0199Z" fill="white"/>
<path d="M73.7818 17.2741C74.1532 17.3205 74.5241 16.8553 75.6383 16.8553C76.7983 16.8553 79.5828 16.7155 81.0216 16.1575C82.089 15.7387 82.9707 15.5525 83.7135 15.4128C83.9455 15.3663 84.3165 15.3199 83.8524 15.2266C83.7598 15.2266 83.3884 15.1802 83.1564 15.1802C82.8314 15.1802 80.8359 15.1802 80.2788 15.2735C79.1651 15.4592 76.9377 15.3663 75.7309 15.3199C74.8492 15.2735 73.7818 15.6454 73.4567 15.7851C73.4104 15.7851 73.7355 16.6691 73.7818 17.2741Z" fill="white"/>
<path d="M58.4202 9.55031C58.5128 9.457 58.6522 9.50387 58.7449 9.50387C59.7196 9.82935 61.0654 9.59674 61.7151 8.57302C61.8081 8.43328 61.9934 8.38685 62.1328 8.43328C62.7825 8.71275 64.1749 8.80562 65.799 7.13052C65.9384 6.99121 66.1241 7.03765 66.2634 7.13052C67.7018 8.29398 69.2332 8.38685 70.7651 7.36312C70.8577 7.31669 70.9971 7.22382 71.0897 7.27025C71.1828 7.31669 71.2754 7.40999 71.2754 7.50286C71.7857 9.78291 74.153 9.59674 74.849 9.45701C74.9416 9.45701 75.0347 9.457 75.1273 9.50387C75.2204 9.55031 75.2667 9.64318 75.2667 9.73648C75.3593 10.2481 75.9164 11.3183 76.9375 11.8299C77.8192 12.2956 78.7472 12.2487 79.7683 11.7371C79.861 11.6906 80.0003 11.6906 80.0934 11.7371C81.3928 12.4349 82.5528 12.4813 83.2489 11.8299C83.7596 11.4112 83.9916 10.6669 83.7596 10.062C83.5276 9.36414 82.8312 8.94536 81.8568 8.89893C81.7174 8.89893 81.5785 8.75919 81.5318 8.61945C81.4391 8.06137 81.1608 7.59616 80.65 7.31669C79.9077 6.85148 78.7936 6.80504 77.6798 7.17738C77.5872 7.22382 77.4941 7.17739 77.4015 7.13052C77.3084 7.08408 77.2621 6.99121 77.2621 6.89791C77.2158 6.47913 77.0301 5.87418 76.4735 5.54871C75.9164 5.2228 75.081 5.2228 74.0136 5.59515C73.8742 5.64158 73.6885 5.59515 73.5959 5.40897C72.9462 4.10621 71.9714 3.26866 70.8577 2.98962C69.8834 2.71058 68.7692 2.89675 67.8412 3.50126C67.7018 3.59457 67.5629 3.59457 67.4235 3.50126C66.4955 2.80345 65.335 2.57084 64.3139 2.89675C63.3395 3.22222 62.5505 3.96691 62.1791 5.0835C62.1328 5.17637 62.0865 5.26967 61.9938 5.26967C61.9008 5.31611 61.8081 5.31611 61.7151 5.26967C60.1836 4.66472 58.9305 4.66472 58.0952 5.31611C57.3991 5.87419 57.1671 6.75861 57.2134 6.99121C57.2134 7.17739 57.1208 7.31669 56.9814 7.36312L56.61 7.45642C55.7746 7.6426 54.8929 7.82877 54.6146 9.17796C54.5683 9.3177 54.4752 9.45701 54.2895 9.45701C52.8044 9.59674 51.8764 10.1553 51.6444 10.9459C51.505 11.5045 51.7838 12.1558 52.2941 12.5282C52.8044 12.9001 53.4541 12.8537 54.0112 12.4349C54.1039 12.3884 54.2432 12.342 54.3363 12.3884C55.218 12.7143 56.61 12.6675 57.4454 11.9697C58.0488 11.458 58.2808 10.7598 58.1415 9.78291C58.2808 9.73648 58.3272 9.64318 58.4202 9.55031V9.55031ZM81.6711 9.64318C82.5528 9.45701 83.5739 10.062 83.2956 11.2718C83.2489 11.458 82.7385 11.5045 82.7849 11.2718C82.8779 10.2946 82.3672 10.2017 81.7175 10.2017C81.4854 10.2017 81.4854 9.68961 81.6711 9.64318ZM77.9586 7.92164C78.7936 7.45642 80.5574 7.50286 81.0677 9.0851C81.1608 9.36414 80.7894 9.78291 80.6037 9.41057C79.954 8.20067 78.8866 8.20067 78.0049 8.52658C77.8192 8.57302 77.6335 8.10781 77.9586 7.92164V7.92164ZM74.2919 6.10723C75.081 5.82775 76.4267 5.68845 76.7981 7.03765C76.8907 7.40999 76.4267 7.59616 76.3341 7.31669C75.9627 6.33983 75.2667 6.38627 74.4776 6.66531C74.0599 6.80504 74.153 6.15366 74.2919 6.10723ZM67.8875 4.61829C68.4446 3.68743 71.4148 2.84988 72.9462 5.45584C73.0856 5.73488 72.8999 5.92105 72.7142 6.01392C72.5748 6.10722 72.5285 5.92105 72.4359 5.78132C71.136 3.73387 68.816 4.29238 68.1658 5.2228C68.0269 5.40897 67.7018 4.89733 67.8875 4.61829V4.61829ZM63.1075 4.80403C63.6179 3.96691 65.428 2.71058 67.0058 4.10621C67.1915 4.24595 66.9595 4.85089 66.7738 4.71116C65.335 3.73387 64.1749 4.52499 63.5716 5.2228C63.2465 5.54871 62.9682 4.9902 63.1075 4.80403ZM54.5216 10.574C53.9186 10.574 53.4078 10.574 52.9901 11.0392C52.5261 11.5509 52.6655 11.7835 52.5724 11.8768C52.4335 12.0161 52.1547 11.7835 52.1547 11.5509C52.201 10.3879 53.5935 9.92221 54.4289 10.0155C54.7536 10.062 54.8003 10.574 54.5216 10.574V10.574ZM57.0277 8.61945C56.146 8.71276 55.8677 9.13153 55.7283 9.64318C55.682 9.82935 55.1713 9.68961 55.2643 9.3177C55.4963 8.20068 56.7031 7.96807 57.1208 8.06137C57.2134 8.10781 57.1671 8.61945 57.0277 8.61945ZM57.7705 7.45642C57.9562 6.47913 58.8842 5.0835 61.0654 5.64158C61.3437 5.68845 61.1584 6.38626 60.8797 6.24653C59.3019 5.64158 58.5128 6.80504 58.2808 7.7819C58.2345 7.8752 57.6775 7.82877 57.7705 7.45642V7.45642Z" fill="white"/>
<path d="M75.3595 11.458C75.2205 11.5509 74.8491 11.737 74.7561 11.8299C73.9674 12.4349 72.2503 13.226 71.8789 13.6448C72.2035 13.9238 72.668 14.4359 72.8537 14.8547C73.0389 14.8547 73.596 14.4359 74.6634 13.1331C75.0348 12.7143 75.4062 12.5282 76.0559 12.1094C75.7772 11.9697 75.5451 11.737 75.3595 11.458V11.458Z" fill="white"/>
<path d="M59.8586 52.6825C60.694 52.9152 61.019 52.6825 61.019 52.6825V47.0058C60.5087 47.0991 59.7196 46.7732 58.8379 46.7268C58.3734 46.7268 58.2345 46.9594 58.2345 46.9594V52.6825C58.2808 52.6825 58.7448 52.3566 59.8586 52.6825V52.6825Z" fill="white"/>
<path d="M64.639 26.3469H50.9948V38.7236H64.5927L64.639 26.3469ZM62.5505 36.2114H58.6523V36.723H57.0278V36.2114H53.1296V29.6043H53.965V28.3944C54.8004 28.5805 56.1924 28.1153 56.7958 28.1153C57.4918 28.1153 57.8169 28.3944 57.8169 28.3944C57.8169 28.3944 58.1883 28.1153 58.838 28.1153C59.4414 28.1153 60.8334 28.5805 61.6688 28.3944V29.6043H62.5042V36.2114H62.5505Z" fill="white"/>
<path d="M58.8379 28.8596C58.3739 28.8596 58.2345 29.0922 58.2345 29.0922V34.8154C58.2345 34.8154 58.7448 34.4899 59.8122 34.7689C60.6476 35.0015 60.9727 34.7689 60.9727 34.7689V29.0922C60.555 29.232 59.7196 28.9061 58.8379 28.8596V28.8596Z" fill="white"/>
</g>
<defs>
<clipPath id="clip0">
<rect width="224" height="62" fill="white" transform="translate(0 0.920288)"/>
</clipPath>
</defs>
</svg>
