<svg width="224" height="63" viewBox="0 0 224 63" fill="none" xmlns="http://www.w3.org/2000/svg">
<g clip-path="url(#clip0)">
<path d="M122.013 35.0921C123.595 35.0921 124.818 34.763 124.818 31.6809V18.4551L122.49 18.3354V17.318L129.623 17.4377L134.19 30.0053H134.22L138.846 17.4377L145.889 17.318V18.3354L143.502 18.4551V34.9425L145.889 35.0622V36.0796C144.725 36.0796 142.487 35.9599 141.323 35.9599C140.129 35.9599 138.04 36.0796 136.876 36.0796V35.0622L139.234 34.9425V19.7717H139.174L133.354 36.0197H131.922L126.042 19.7717H125.982V31.6809C125.982 34.763 127.146 35.0921 129.027 35.0921V36.1095C127.564 36.1095 126.699 35.9898 125.535 35.9898C124.371 35.9898 123.505 36.1095 122.013 36.1095V35.0921Z" fill="#111111"/>
<path d="M146.397 29.4068C146.397 24.3798 149.799 22.0458 153.56 22.0458C157.38 22.0458 160.753 24.0805 160.753 29.1076C160.753 34.1645 157.44 36.4686 153.56 36.4686C149.74 36.4686 146.397 34.4637 146.397 29.4068ZM156.455 29.2572C156.455 25.2475 155.649 23.0632 153.56 23.0632C151.53 23.0632 150.695 25.2475 150.695 29.2572C150.695 33.2967 151.53 35.4512 153.56 35.4512C155.649 35.4512 156.455 33.2967 156.455 29.2572Z" fill="#111111"/>
<path d="M163.26 25.1877C163.26 23.5719 162.752 23.5719 161.26 23.5719V22.5545L167.17 22.2552V30.3942C167.17 33.2369 167.229 34.6732 169.05 34.6732C170.482 34.6732 172.333 32.9676 172.333 30.0651V25.1877C172.333 23.5719 171.646 23.5719 170.363 23.5719V22.5545L176.243 22.2552V34.9126L178.242 34.9724V35.9898L172.572 36.289L172.482 33.6558H172.452C171.497 35.2417 169.856 36.4387 167.528 36.4387C164.424 36.4387 163.29 34.8527 163.29 31.4715V25.1877H163.26Z" fill="#111111"/>
<path d="M186.659 35.0921V36.1095C185.256 36.1095 184.48 35.9898 182.779 35.9898C181.078 35.9898 180.272 36.1095 178.839 36.1095V35.0921L180.839 34.9425V25.1278C180.839 23.5719 180.332 23.5719 178.839 23.5719V22.5545L184.51 22.2553L184.57 24.8286H184.6C185.614 23.2128 187.196 22.0159 189.524 22.0159C192.001 22.0159 193.762 23.512 193.762 27.2524V34.9425L195.792 35.0921V36.1095C194.359 36.1095 193.553 35.9898 191.852 35.9898C190.151 35.9898 189.405 36.1095 187.972 36.1095V35.0921L189.912 34.9425V28.1201C189.912 24.9184 189.554 23.7813 188.002 23.7813C186.569 23.7813 184.749 25.4869 184.749 28.3894V34.9425L186.659 35.0921Z" fill="#111111"/>
<path d="M201.164 32.1597C201.104 33.985 201.164 35.0024 202.388 35.0024C203.492 35.0024 204.089 33.4464 204.089 33.4464L205.044 33.8055C205.044 33.8055 204.417 36.5284 201.313 36.5284C197.702 36.5284 197.314 34.5535 197.314 32.2495V23.6916H195.105V22.5246H197.314V17.6172C199.522 17.6172 201.164 17.0487 201.164 17.0487V22.5545H204.477V23.7215H201.164V32.1597Z" fill="#111111"/>
<path d="M124.4 55.4695C124.639 56.7861 126.549 61.8132 130.4 61.8132C132.817 61.8132 133.802 60.4666 133.802 58.9107C133.802 53.4348 123.625 56.4869 123.625 49.0062C123.625 44.6076 127.236 43.1414 129.922 43.1414C132.369 43.1414 133.653 43.9493 134.1 43.9493C134.608 43.9493 134.757 43.291 134.757 43.291H135.742C135.742 44.2784 135.682 44.9666 135.682 45.9242C135.682 47.3006 135.742 48.1085 135.742 49.0661H134.757C134.518 47.7794 132.847 44.1587 129.683 44.1587C127.922 44.1587 126.699 45.2659 126.699 46.7919C126.699 51.819 137.175 48.9165 137.175 56.846C137.175 61.1848 133.891 62.9203 130.31 62.9203C127.176 62.9203 125.564 61.8431 125.027 61.8431C124.4 61.8431 124.281 62.5612 124.281 62.5612H123.296C123.296 61.1549 123.386 60.2871 123.386 58.8807C123.386 57.5342 123.296 56.6665 123.296 55.4396H124.4V55.4695Z" fill="#111111"/>
<path d="M142.278 41.4657C143.502 41.4657 144.636 42.2736 144.636 43.7099C144.636 45.1462 143.472 45.9541 142.278 45.9541C141.055 45.9541 139.891 45.1462 139.891 43.7099C139.891 42.2736 141.025 41.4657 142.278 41.4657Z" fill="#111111"/>
<path d="M146.188 61.3643V62.3817C144.785 62.3817 143.95 62.262 142.248 62.262C140.547 62.262 139.741 62.3817 138.309 62.3817V61.3643L140.308 61.2147V51.4599C140.308 49.8441 139.771 49.8441 138.309 49.8441V48.8267L144.218 48.5275V61.2147L146.188 61.3643Z" fill="#111111"/>
<path d="M154.664 61.3643V62.3817C153.261 62.3817 152.485 62.262 150.784 62.262C149.083 62.262 148.277 62.3817 146.844 62.3817V61.3643L148.844 61.2147V51.4001C148.844 49.8441 148.337 49.8441 146.844 49.8441V48.8267L152.515 48.5275L152.575 51.1008H152.605C153.619 49.485 155.201 48.2881 157.529 48.2881C160.006 48.2881 161.767 49.7842 161.767 53.5246V61.2147L163.797 61.3643V62.3817C162.364 62.3817 161.558 62.262 159.857 62.262C158.156 62.262 157.41 62.3817 155.977 62.3817V61.3643L157.917 61.2147V54.3923C157.917 51.1906 157.559 50.0535 156.007 50.0535C154.575 50.0535 152.754 51.7591 152.754 54.6616V61.2147L154.664 61.3643Z" fill="#111111"/>
<path d="M179.466 60.0776C179.466 60.0776 179.048 62.7707 176.004 62.7707C174.572 62.7707 173.348 62.1722 172.84 60.706H172.811C172.154 61.9628 170.93 62.8904 168.781 62.8904C166.722 62.8904 164.275 61.9329 164.275 58.8508C164.275 55.0207 168.781 54.6616 172.781 54.6915V53.2553C172.87 50.8914 172.661 49.3354 170.751 49.3354C169.289 49.3354 168.632 50.0834 168.483 50.3827C168.483 50.3827 169.14 50.7417 169.14 51.7292C169.14 52.7765 168.364 53.4946 167.17 53.4946C166.006 53.4946 165.2 52.7765 165.2 51.6095C165.2 49.5149 167.886 48.318 171.08 48.318C176.243 48.318 176.691 51.2504 176.631 54.0332L176.482 59.6288C176.452 60.5564 176.75 61.1549 177.407 61.1549C178.272 61.1549 178.571 59.8981 178.571 59.8981L179.466 60.0776ZM172.721 55.679C169.08 55.6192 168.244 56.6066 168.244 58.4618C168.244 60.1973 168.931 61.095 170.154 61.095C171.318 61.095 172.602 60.0776 172.661 57.9531L172.721 55.679Z" fill="#111111"/>
<path d="M183.465 41.4657C184.689 41.4657 185.823 42.2736 185.823 43.7099C185.823 45.1462 184.659 45.9541 183.465 45.9541C182.212 45.9541 181.078 45.1462 181.078 43.7099C181.078 42.2736 182.242 41.4657 183.465 41.4657Z" fill="#111111"/>
<path d="M187.405 61.3643V62.3817C186.002 62.3817 185.166 62.262 183.465 62.262C181.764 62.262 180.958 62.3817 179.526 62.3817V61.3643L181.525 61.2147V51.4599C181.525 49.8441 180.988 49.8441 179.526 49.8441V48.8267L185.435 48.5275V61.2147L187.405 61.3643Z" fill="#111111"/>
<path d="M52.8302 62.621H45.3687L80.6166 9.17896L84.5861 14.9541L52.8302 62.621Z" fill="#111111"/>
<path d="M66.0819 62.6211H58.5906L87.1829 18.7244L91.1524 24.4695L66.0819 62.6211Z" fill="#111111"/>
<path d="M75.8415 2.20697C75.5729 1.84789 75.1551 0.920288 74.1702 0.920288C73.1853 0.920288 72.7674 1.84789 72.4988 2.20697L32.1473 62.6211H39.6386L78.1098 5.5284L75.8415 2.20697Z" fill="#111111"/>
<path d="M56.6506 11.094C56.382 10.735 55.9641 9.83728 54.9792 9.83728C53.9943 9.83728 53.5765 10.7649 53.3078 11.094L18.8956 62.6211H26.3869L58.889 14.4753L56.6506 11.094Z" fill="#111111"/>
<path d="M56.6507 11.094C56.3821 10.735 55.9642 9.83728 54.9793 9.83728C53.9646 9.83728 53.5766 10.7649 53.308 11.094L51.0397 14.5052L83.4821 62.6211H90.9734L56.6507 11.094Z" fill="#CCCBC9"/>
<path d="M75.8116 2.20697C75.543 1.84789 75.1251 0.920288 74.1402 0.920288C73.1254 0.920288 72.7076 1.84789 72.4688 2.20697L70.2006 5.58824L109.895 62.5911H117.387L75.8116 2.20697Z" fill="#CCCBC9"/>
<path d="M84.5864 14.9541L80.6169 9.17896L76.7668 15.0139L80.7363 20.7291L84.5864 14.9541Z" fill="#111111"/>
<path d="M91.1524 24.4995L87.1829 18.7244L83.3925 24.5294L87.3919 30.2446L91.1524 24.4995Z" fill="#111111"/>
<path d="M96.7035 62.6211H104.195L67.9024 9.11914L63.9926 14.9541L96.7035 62.6211Z" fill="#CCCBC9"/>
<path d="M75.8116 2.20697C75.543 1.84789 75.1251 0.920288 74.1402 0.920288C74.0208 0.920288 73.9014 0.920288 73.7821 0.950211C73.0359 1.12975 72.6778 1.87782 72.4688 2.17704L70.4393 5.25909L70.2006 5.58824L74.1701 11.3035L78.1097 5.5284L75.8116 2.20697Z" fill="#111111"/>
<path d="M67.9024 9.11914L63.9926 14.9242L67.9024 20.6394L71.8121 14.8643L67.9024 9.11914Z" fill="#111111"/>
<path d="M74.4387 30.1848L78.2888 24.4097L74.379 18.6646L70.5289 24.4696L74.4387 30.1848Z" fill="#111111"/>
<path d="M81.0645 39.8199L84.8549 34.1047L80.9451 28.3296L77.1547 34.1346L81.0645 39.8199Z" fill="#111111"/>
<path d="M56.6507 11.094C56.3821 10.735 55.9642 9.83728 54.9793 9.83728C54.8599 9.83728 54.7406 9.83728 54.6212 9.8672C53.875 10.0467 53.5169 10.7948 53.308 11.094L51.0397 14.5052L54.9495 20.3103L58.8891 14.4753L58.8593 14.4155L56.6507 11.094Z" fill="#111111"/>
<path d="M65.455 24.3199L61.575 18.5149L57.6951 24.3498L61.5452 30.095L65.455 24.3199Z" fill="#111111"/>
<path d="M71.9018 34.015L68.0517 28.2399L64.2314 34.0449L68.0816 39.7601L71.9018 34.015Z" fill="#111111"/>
<path d="M78.4381 43.8295L74.588 38.0544L70.8274 43.8295L74.6775 49.5448L78.4381 43.8295Z" fill="#111111"/>
</g>
<defs>
<clipPath id="clip0">
<rect width="224" height="62" fill="white" transform="translate(0 0.920288)"/>
</clipPath>
</defs>
</svg>
