<svg width="224" height="63" viewBox="0 0 224 63" fill="none" xmlns="http://www.w3.org/2000/svg">
<g style="mix-blend-mode:multiply">
<path fill-rule="evenodd" clip-rule="evenodd" d="M173.841 28.2768V20.8075H145.501V48.3296C145.349 45.1053 144.174 42.6036 141.95 40.8442C140.413 39.6276 138.104 38.6556 135.023 37.9291L127.994 36.2672C125.282 35.6317 123.508 35.0782 122.673 34.6056C121.905 34.1874 121.367 33.6415 121.052 32.9702L121.052 32.9716C121.05 32.9667 121.048 32.9619 121.046 32.9571C120.836 32.4983 120.717 31.9627 120.717 31.3878C120.717 30.1571 121.138 29.1107 122.01 28.2881C122.01 28.2871 122.01 28.2857 122.01 28.2857C122.029 28.2671 122.049 28.2503 122.068 28.2327L122.068 28.2323C122.069 28.2289 122.069 28.2286 122.07 28.2303C122.261 28.0567 122.47 27.8927 122.7 27.7401C124.019 26.8683 125.783 26.4326 127.994 26.4326C129.981 26.4326 131.643 26.7688 132.98 27.4405C134.986 28.458 136.063 30.1743 136.211 32.5896H144.255C144.108 28.3216 142.526 25.0662 139.509 22.8229C136.492 20.5798 132.848 19.4583 128.575 19.4583C123.459 19.4583 119.58 20.648 116.939 23.0271C115.315 24.49 114.193 26.1836 113.568 28.1063H113.565C113.431 28.5203 113.318 28.9509 113.229 29.3855H113.229C112.249 34.0169 109.275 37.1621 104.302 37.1621C96.34 37.1621 93.3493 30.3703 93.3493 23.6344C93.3493 16.5609 96.34 9.77082 104.302 9.77082C108.703 9.77082 112.544 12.8257 113.107 16.8436H121.689C120.615 7.50575 113.164 2.2981 104.302 2.2981C92.4035 2.2981 85.1839 10.7935 84.5391 21.9852V3.26082H75.6749V28.3898C75.6749 34.3889 73.6431 37.1621 67.3206 37.1621C60.1509 37.1621 59.0223 32.8042 59.0223 28.3898V3.26082H50.1595V28.3898C50.1595 39.37 56.4807 44.6334 67.3206 44.6334C78.1042 44.6334 84.5391 39.3142 84.5391 28.3898V25.2391C85.1839 36.1387 92.4035 44.6334 104.302 44.6334C109.191 44.6334 113.36 43.0524 116.435 40.2355C116.625 40.3895 116.821 40.539 117.027 40.6806C118.621 41.7886 121.549 42.8151 125.811 43.7592L130.147 44.7126C132.685 45.2575 134.539 45.8841 135.708 46.5926C136.877 47.319 137.461 48.3455 137.461 49.6709C137.461 51.9418 136.269 53.4946 133.882 54.3295C132.625 54.7656 130.987 54.9833 128.971 54.9833C125.605 54.9833 123.228 54.1573 121.841 52.5043C121.083 51.5964 120.574 50.2255 120.315 48.3906H112.326C112.326 52.5684 113.836 55.8509 116.858 58.239C119.879 60.6273 124.026 61.8215 129.3 61.8215C134.463 61.8215 138.459 60.6091 141.288 58.1845C143.89 55.9546 145.292 53.197 145.501 49.9144V61.2184H154.365V44.5211H171.243V37.616H154.365V28.2768H173.841Z" fill="#111111"/>
</g>
</svg>
